<?xml version="1.0" encoding="UTF-8" standalone="no"?>
<!DOCTYPE svg PUBLIC "-//W3C//DTD SVG 1.1//EN" "http://www.w3.org/Graphics/SVG/1.1/DTD/svg11.dtd">
<svg width="100%" height="100%" viewBox="0 0 460 101" version="1.1" xmlns="http://www.w3.org/2000/svg" xmlns:xlink="http://www.w3.org/1999/xlink" xml:space="preserve" xmlns:serif="http://www.serif.com/" style="fill-rule:evenodd;clip-rule:evenodd;stroke-linejoin:round;stroke-miterlimit:2;">
    <g transform="matrix(1,0,0,1,-424.467,-885.547)">
        <g transform="matrix(0.50664,0,0,0.50664,-3180.09,716.141)">
            <path d="M7748.03,494.075C7745.9,494.075 7745.15,494.179 7744.71,495.479L7739.65,510.344C7739.22,511.54 7738.65,512.371 7737.85,513.047C7736.11,514.606 7733.87,515.802 7731.79,515.802C7728.82,515.802 7728.52,513.515 7729.43,510.812L7734.68,495.479C7735.12,494.179 7734.41,494.075 7732.28,494.075C7730.15,494.075 7729.4,494.179 7728.96,495.479L7723.58,511.228C7721.77,516.582 7722.75,520.896 7728.41,520.896C7731.53,520.896 7734.53,519.544 7737.22,517.361L7735.99,520.948C7734.21,526.145 7731.61,528.432 7727.08,528.432C7722.61,528.432 7721.33,526.093 7720.39,526.093C7719.3,526.093 7717.82,527.913 7717.59,529.212C7717.4,530.2 7717.65,530.823 7718.78,531.499C7720.55,532.591 7722.82,533.266 7725.73,533.266C7733.58,533.266 7739,528.952 7741.9,520.48L7750.43,495.479C7750.87,494.179 7750.16,494.075 7748.03,494.075ZM7783.49,493.711C7780.48,493.711 7777.49,495.011 7774.63,497.558L7774.84,495.271C7774.93,494.231 7774.49,494.075 7772.93,494.075C7771.06,494.075 7770.65,494.335 7770.21,495.583L7757.9,531.603C7757.46,532.851 7758.17,532.954 7760.3,532.954C7762.49,532.954 7763.18,532.851 7763.62,531.603L7768.52,517.309C7769.68,519.752 7771.7,520.948 7774.56,520.948C7782.04,520.948 7788.43,513.047 7790.02,504.367C7791.4,496.83 7788.07,493.711 7783.49,493.711ZM8007.39,510.032C8014.93,510.032 8021.27,506.914 8022.43,500.572C8023.15,496.622 8021.04,493.659 8015.48,493.659C8006.33,493.659 7999.84,501.612 7998.25,510.292C7996.88,517.777 8000.7,521 8006.68,521C8009.64,521 8012.43,520.272 8014.93,519.076C8016.3,518.453 8016.86,517.933 8017.09,516.685C8017.28,515.646 8016.82,514.191 8015.88,514.191C8015.05,514.191 8012.26,516.374 8008.41,516.374C8005.45,516.374 8003.26,514.97 8004.18,509.98L8004.2,509.876C8005.32,509.98 8006.4,510.032 8007.39,510.032ZM7678.7,521C7685.1,521 7689.57,517.829 7690.55,512.475C7691.28,508.525 7689.5,506.29 7684.51,504.627C7681.77,503.691 7680.95,502.755 7681.24,501.196C7681.57,499.377 7683.2,497.818 7686.01,497.818C7689.49,497.818 7690.97,500.001 7691.9,500.001C7692.84,500.001 7694.03,498.597 7694.27,497.298C7694.47,496.206 7694.11,495.583 7693.13,495.011C7691.72,494.179 7689.74,493.659 7687.24,493.659C7681.32,493.659 7676.67,496.882 7675.74,501.976C7675.05,505.718 7676.97,507.745 7682.06,509.461C7684.51,510.292 7685.35,511.384 7685.03,513.099C7684.61,515.438 7682.86,516.737 7680.21,516.737C7675.9,516.737 7674.3,514.087 7673.37,514.087C7672.33,514.087 7670.98,515.75 7670.76,516.945C7670.59,517.881 7670.85,518.453 7671.97,519.18C7673.73,520.324 7675.84,521 7678.7,521ZM7627.54,510.032C7635.07,510.032 7641.41,506.914 7642.57,500.572C7643.3,496.622 7641.19,493.659 7635.63,493.659C7626.48,493.659 7619.98,501.612 7618.39,510.292C7617.02,517.777 7620.85,521 7626.83,521C7629.79,521 7632.57,520.272 7635.08,519.076C7636.44,518.453 7637.01,517.933 7637.23,516.685C7637.42,515.646 7636.96,514.191 7636.03,514.191C7635.2,514.191 7632.4,516.374 7628.56,516.374C7625.6,516.374 7623.41,514.97 7624.32,509.98L7624.34,509.876C7625.47,509.98 7626.55,510.032 7627.54,510.032ZM7844.67,521C7851.06,521 7855.54,517.829 7856.52,512.475C7857.24,508.525 7855.47,506.29 7850.47,504.627C7847.73,503.691 7846.91,502.755 7847.2,501.196C7847.53,499.377 7849.17,497.818 7851.98,497.818C7855.46,497.818 7856.93,500.001 7857.87,500.001C7858.8,500.001 7859.99,498.597 7860.23,497.298C7860.43,496.206 7860.08,495.583 7859.09,495.011C7857.69,494.179 7855.7,493.659 7853.21,493.659C7847.28,493.659 7842.64,496.882 7841.7,501.976C7841.02,505.718 7842.94,507.745 7848.03,509.461C7850.47,510.292 7851.31,511.384 7851,513.099C7850.57,515.438 7848.83,516.737 7846.18,516.737C7841.86,516.737 7840.27,514.087 7839.33,514.087C7838.29,514.087 7836.95,515.75 7836.73,516.945C7836.56,517.881 7836.82,518.453 7837.93,519.18C7839.7,520.324 7841.81,521 7844.67,521ZM7869.82,521C7879.28,521 7885.64,512.995 7887.21,504.367C7888.59,496.83 7884.91,493.659 7879.14,493.659C7869.63,493.659 7863.29,501.612 7861.7,510.292C7860.32,517.829 7864,521 7869.82,521ZM7802.03,510.032C7809.56,510.032 7815.9,506.914 7817.06,500.572C7817.79,496.622 7815.68,493.659 7810.12,493.659C7800.97,493.659 7794.47,501.612 7792.88,510.292C7791.51,517.777 7795.34,521 7801.32,521C7804.28,521 7807.06,520.272 7809.57,519.076C7810.93,518.453 7811.49,517.933 7811.72,516.685C7811.91,515.646 7811.45,514.191 7810.52,514.191C7809.69,514.191 7806.89,516.374 7803.05,516.374C7800.09,516.374 7797.9,514.97 7798.81,509.98L7798.83,509.876C7799.96,509.98 7801.04,510.032 7802.03,510.032ZM7945.34,494.075C7943.78,494.075 7943.18,494.231 7942.57,495.271L7941.2,497.662C7940.06,495.063 7937.87,493.711 7934.75,493.711C7927.21,493.711 7920.83,501.612 7919.24,510.292C7917.86,517.829 7921.19,520.948 7925.76,520.948C7928.78,520.948 7931.77,519.648 7934.63,517.101L7934.42,519.388C7934.32,520.48 7934.77,520.584 7936.38,520.584C7938.15,520.584 7938.61,520.324 7939.05,519.076L7947.09,495.583C7947.53,494.335 7947.16,494.075 7945.34,494.075ZM7670.22,494.075C7668.66,494.075 7668.06,494.231 7667.45,495.271L7666.08,497.662C7664.94,495.063 7662.75,493.711 7659.63,493.711C7652.09,493.711 7645.71,501.612 7644.12,510.292C7642.74,517.829 7646.07,520.948 7650.64,520.948C7653.66,520.948 7656.65,519.648 7659.51,517.101L7659.3,519.388C7659.2,520.48 7659.65,520.584 7661.26,520.584C7663.03,520.584 7663.49,520.324 7663.93,519.076L7671.97,495.583C7672.41,494.335 7672.04,494.075 7670.22,494.075ZM7838.79,493.763C7835.57,493.763 7832.32,495.323 7829.4,497.921L7829.68,495.271C7829.6,494.283 7829.27,494.075 7827.66,494.075C7825.89,494.075 7825.48,494.335 7825.05,495.583L7816.97,519.232C7816.54,520.48 7817.25,520.584 7819.38,520.584C7821.51,520.584 7822.26,520.48 7822.69,519.232L7827.76,504.315C7828.19,503.119 7828.69,502.34 7829.61,501.612C7831.63,499.949 7833.68,499.221 7835.82,499.221C7836.49,499.221 7837.05,499.273 7837.68,499.273C7838.92,499.273 7840.14,497.454 7840.48,495.583C7840.71,494.335 7840.45,493.763 7838.79,493.763ZM7910.73,493.763C7907.24,493.763 7903.78,495.375 7900.8,498.025L7900.99,495.271C7901.07,494.283 7900.74,494.075 7899.13,494.075C7897.36,494.075 7896.95,494.335 7896.52,495.583L7888.44,519.232C7888.01,520.48 7888.72,520.584 7890.85,520.584C7892.98,520.584 7893.73,520.48 7894.16,519.232L7899.23,504.315C7899.6,503.171 7900.29,502.236 7901.09,501.56C7902.82,500.053 7905.22,498.857 7907.3,498.857C7910.31,498.857 7910.57,501.144 7909.66,503.847L7904.4,519.232C7903.97,520.48 7904.67,520.584 7906.8,520.584C7908.99,520.584 7909.68,520.48 7910.12,519.232L7915.52,503.379C7917.32,498.077 7916.39,493.763 7910.73,493.763ZM7709.86,520.584C7711.99,520.584 7712.74,520.48 7713.18,519.232L7725.62,482.744C7726.06,481.497 7725.35,481.393 7723.22,481.393C7721.09,481.393 7720.34,481.497 7719.91,482.744L7707.46,519.232C7707.02,520.48 7707.73,520.584 7709.86,520.584ZM7962.47,520.584C7964.6,520.584 7965.35,520.48 7965.79,519.232L7973.88,495.479C7974.32,494.179 7973.61,494.075 7971.48,494.075C7969.35,494.075 7968.61,494.179 7968.16,495.479L7960.07,519.232C7959.63,520.48 7960.34,520.584 7962.47,520.584ZM7949.06,520.584C7951.19,520.584 7951.94,520.48 7952.38,519.232L7964.82,482.744C7965.26,481.497 7964.55,481.393 7962.42,481.393C7960.29,481.393 7959.54,481.497 7959.11,482.744L7946.66,519.232C7946.22,520.48 7946.93,520.584 7949.06,520.584ZM7696.5,520.584C7698.63,520.584 7699.38,520.48 7699.82,519.232L7707.91,495.479C7708.35,494.179 7707.64,494.075 7705.51,494.075C7703.38,494.075 7702.64,494.179 7702.19,495.479L7694.1,519.232C7693.66,520.48 7694.37,520.584 7696.5,520.584ZM7989.31,520.48L7973.15,520.48C7972.11,520.48 7971.86,520.116 7972.03,518.661C7972.16,517.361 7972.36,516.841 7973.06,515.854C7977.54,509.565 7983.73,503.275 7990.1,498.857L7980.33,498.857C7979.24,498.857 7979.4,498.233 7979.98,496.518C7980.55,494.803 7980.87,494.179 7981.91,494.179L7997.66,494.179C7998.54,494.179 7998.73,494.595 7998.57,495.998C7998.38,497.61 7998.24,498.129 7997.13,498.805C7990.47,502.807 7983.16,509.2 7978.68,515.802L7990.84,515.802C7991.94,515.802 7991.76,516.478 7991.27,518.037C7990.67,519.856 7990.35,520.48 7989.31,520.48ZM7871.37,516.53C7868.72,516.53 7866.78,514.918 7867.68,509.98C7868.8,503.899 7872.56,498.129 7877.65,498.129C7880.3,498.129 7882.21,499.637 7881.29,504.627C7880.18,510.708 7876.46,516.53 7871.37,516.53ZM7663.06,505.094C7662.56,506.654 7662.01,508.265 7661.47,509.772C7660.92,511.384 7660.37,512.371 7659.29,513.463C7657.43,515.386 7655.34,516.322 7653.41,516.322C7650.82,516.322 7649.22,514.814 7650.1,509.98C7651.19,504.055 7654.82,498.389 7659.4,498.389C7661.43,498.389 7662.68,499.481 7663.28,501.3C7663.65,502.444 7663.53,503.639 7663.06,505.094ZM7938.18,505.094C7937.68,506.654 7937.13,508.265 7936.59,509.772C7936.04,511.384 7935.49,512.371 7934.41,513.463C7932.55,515.386 7930.45,516.322 7928.53,516.322C7925.93,516.322 7924.34,514.814 7925.22,509.98C7926.31,504.055 7929.94,498.389 7934.52,498.389C7936.54,498.389 7937.8,499.481 7938.4,501.3C7938.77,502.444 7938.65,503.639 7938.18,505.094ZM7774.75,516.218C7772.72,516.218 7771.57,515.126 7770.96,513.359C7770.54,512.215 7770.62,510.968 7771.09,509.513C7771.57,508.005 7772.08,506.394 7772.66,504.887C7773.27,503.275 7773.76,502.288 7774.72,501.3C7776.71,499.273 7778.81,498.285 7780.73,498.285C7783.33,498.285 7784.93,499.793 7784.03,504.679C7782.96,510.552 7779.32,516.218 7774.75,516.218ZM7542.16,466.654L7542.01,466.654C7538.47,466.654 7535.59,465.991 7533.35,464.665C7531.12,463.339 7529.57,461.532 7528.71,459.244C7527.85,456.956 7527.39,454.291 7527.31,451.249C7527.23,448.208 7527.57,444.971 7528.32,441.539C7529.07,438.107 7529.96,434.571 7530.97,430.931C7531.99,427.292 7533.13,423.756 7534.4,420.324C7535.68,416.892 7536.84,413.655 7537.88,410.613C7538.91,407.571 7539.79,404.906 7540.49,402.619C7541.19,400.331 7541.52,398.524 7541.46,397.198C7541.41,395.872 7540.92,395.209 7539.98,395.209C7538.27,395.209 7535.86,396.86 7532.77,400.162C7529.67,403.464 7526.46,407.792 7523.13,413.148C7519.81,418.504 7516.62,424.211 7513.58,430.268C7510.54,436.326 7508.06,442.501 7506.13,448.793C7504.21,455.084 7503.3,460.44 7503.4,464.86C7501.27,465.744 7498.98,466.329 7496.54,466.615C7494.09,466.901 7491.75,466.836 7489.52,466.42C7487.28,466.004 7485.44,465.029 7483.98,463.495C7482.52,461.961 7481.8,459.972 7481.8,457.528C7481.8,454.096 7484.01,445.673 7488.43,432.257C7493.05,418.27 7495.78,409.17 7496.61,404.958C7497.81,399.135 7497.34,396.223 7495.21,396.223C7492.25,396.223 7487.69,401.007 7481.52,410.574C7475.36,420.142 7469.77,430.489 7464.75,441.617C7459.74,452.744 7457.07,460.544 7456.76,465.016C7454.16,466.264 7451.52,467.07 7448.84,467.434C7446.16,467.798 7443.77,467.382 7441.67,466.186C7439.56,464.99 7438.51,462.91 7438.51,459.946C7438.51,458.571 7439.04,456.024 7440.11,452.303C7438.3,454.147 7436.4,455.888 7434.41,457.528C7431.01,460.336 7427.08,462.611 7422.64,464.353C7418.19,466.095 7413.65,466.966 7409.03,466.966C7400.76,466.966 7394.78,463.092 7391.09,455.344C7387.65,448.065 7386.82,438.991 7388.59,428.123C7390.46,416.944 7394.6,407.194 7400.99,398.875C7408.48,389.047 7417.5,383.691 7428.06,382.807C7429.04,382.703 7430.03,382.651 7431.02,382.651C7437,382.651 7440.95,385.225 7442.88,390.373C7444.69,395.261 7444.31,401.059 7441.71,407.766C7438.95,414.838 7434.61,420.402 7428.68,424.458C7422.34,428.773 7415.34,430.385 7407.7,429.293C7406.66,436.625 7406.85,442.527 7408.28,446.999C7409.71,451.47 7412.56,453.706 7416.82,453.706C7419.84,453.706 7422.92,452.9 7426.07,451.288C7429.21,449.677 7432.11,447.571 7434.76,444.971C7437.42,442.371 7439.95,439.407 7442.37,436.079C7444.79,432.751 7446.89,429.41 7448.69,426.057C7448.99,425.495 7449.28,424.935 7449.56,424.378C7449.93,423.367 7450.3,422.353 7450.68,421.338C7453.64,413.278 7456.08,405.556 7458.01,398.173C7459.93,390.789 7460.37,386.187 7459.33,384.367C7460.32,383.223 7461.8,382.417 7463.78,381.949C7465.75,381.482 7467.74,381.417 7469.74,381.754C7471.75,382.092 7473.49,383.106 7474.97,384.796C7476.45,386.486 7477.19,388.735 7477.19,391.543C7477.19,393.155 7476.93,395.196 7476.41,397.666C7475.89,400.136 7475.37,402.203 7474.85,403.867L7474.15,406.284C7475.04,404.88 7476.06,403.373 7477.23,401.761C7478.4,400.149 7480.09,398.134 7482.3,395.716C7484.51,393.298 7486.78,391.153 7489.09,389.281C7491.4,387.409 7494.12,385.797 7497.24,384.445C7500.36,383.093 7503.43,382.417 7506.44,382.417C7509.46,382.417 7511.78,383.353 7513.42,385.225C7515.06,387.097 7515.98,389.372 7516.19,392.05C7516.4,394.728 7516.39,397.419 7516.15,400.123C7515.92,402.827 7515.54,405.114 7515.02,406.986L7514.24,409.794C7518.92,402.099 7524.4,395.612 7530.66,390.334C7536.93,385.056 7542.94,382.417 7548.72,382.417C7553.19,382.417 7556.61,383.262 7558.97,384.952C7561.34,386.642 7562.52,389.437 7562.52,393.337C7562.52,396.353 7560.49,403.685 7556.44,415.332C7552.12,427.811 7549.57,436.053 7548.8,440.057C7547.81,445.621 7548.53,448.403 7550.98,448.403C7553.74,448.403 7556.88,446.596 7560.42,442.982C7563.95,439.368 7567.14,435.143 7569.97,430.307C7572.27,426.382 7574.19,422.542 7575.72,418.788C7577.29,413.737 7578.73,408.802 7580.03,403.984C7582.92,393.298 7583.71,386.707 7582.41,384.211C7586.47,382.495 7589.94,381.612 7592.82,381.56C7595.71,381.508 7597.86,382.092 7599.26,383.314C7600.66,384.536 7601.65,386.187 7602.22,388.267C7602.8,390.347 7602.96,392.505 7602.73,394.741C7602.5,396.977 7602.02,399.213 7601.29,401.449C7603.52,397.445 7605.73,394.13 7607.92,391.504C7610.1,388.878 7612.24,386.954 7614.35,385.732C7616.46,384.51 7618.34,383.691 7620.01,383.275C7621.67,382.859 7623.52,382.651 7625.54,382.651C7632.15,382.651 7636.54,386.421 7638.73,393.961C7640.91,401.605 7640.52,411.224 7637.56,422.82C7634.49,434.675 7629.73,444.685 7623.28,452.848C7617.15,460.492 7610.62,464.886 7603.7,466.03C7600.48,466.55 7597.44,466.472 7594.58,465.796C7591.72,465.12 7589.34,463.69 7587.44,461.506C7585.54,459.322 7584.78,456.514 7585.14,453.082C7579.99,466.342 7576.37,477.118 7574.26,485.412C7572.15,493.706 7571.36,500.504 7571.88,505.808C7571,506.692 7569.49,507.355 7567.36,507.797C7565.23,508.239 7562.99,508.317 7560.65,508.031C7558.31,507.745 7556.27,506.601 7554.53,504.599C7552.79,502.597 7551.91,499.854 7551.91,496.371C7551.91,492.575 7553.76,484.814 7557.45,473.089C7559.45,466.744 7561.53,460.385 7563.69,454.01C7560.8,457.517 7557.48,460.471 7553.75,462.871C7549.82,465.393 7545.96,466.654 7542.16,466.654ZM8007.05,505.926C8012.45,505.926 8016.33,504.627 8016.98,501.092C8017.35,499.065 8016.12,498.129 8013.99,498.129C8010.04,498.129 8007.02,501.56 8005.33,505.926L8007.05,505.926ZM7627.2,505.926C7632.6,505.926 7636.48,504.627 7637.12,501.092C7637.5,499.065 7636.26,498.129 7634.13,498.129C7630.18,498.129 7627.16,501.56 7625.48,505.926L7627.2,505.926ZM7801.69,505.926C7807.09,505.926 7810.97,504.627 7811.61,501.092C7811.99,499.065 7810.75,498.129 7808.62,498.129C7804.67,498.129 7801.65,501.56 7799.97,505.926L7801.69,505.926ZM7707.41,489.085C7710.17,489.085 7711.44,487.838 7711.91,485.239C7712.23,483.524 7711.45,482.64 7708.9,482.64C7706.15,482.64 7704.89,483.836 7704.41,486.486C7704.08,488.254 7704.87,489.085 7707.41,489.085ZM7973.38,489.085C7976.14,489.085 7977.41,487.838 7977.88,485.239C7978.2,483.524 7977.42,482.64 7974.88,482.64C7972.12,482.64 7970.86,483.836 7970.38,486.486C7970.05,488.254 7970.84,489.085 7973.38,489.085ZM7315.43,369.158C7312.1,367.806 7309.25,365.687 7306.89,362.801C7304.52,359.915 7303.34,356.575 7303.34,352.779C7303.34,348.567 7305.33,345.239 7309.31,342.795C7313.28,340.351 7318.52,338.791 7325.02,338.115C7331.52,337.439 7338.75,337.127 7346.71,337.179C7354.66,337.231 7362.81,337.504 7371.16,337.998C7379.5,338.492 7387.28,338.843 7394.48,339.051C7401.68,339.259 7408.02,339.025 7413.51,338.349C7419,337.673 7422.62,336.347 7424.39,334.372C7424.49,334.632 7424.64,334.996 7424.82,335.464C7425,335.931 7425.26,336.854 7425.6,338.232C7425.94,339.61 7426.15,340.962 7426.22,342.288C7426.3,343.614 7426.15,345.122 7425.76,346.812C7425.36,348.502 7424.69,350.049 7423.73,351.453C7422.77,352.857 7421.26,354.183 7419.2,355.431C7417.15,356.679 7414.67,357.641 7411.76,358.317C7409.88,358.784 7407.17,359.005 7403.6,358.979C7400.04,358.953 7396.79,358.823 7393.86,358.59C7390.92,358.356 7386.42,357.94 7380.36,357.342C7374.3,356.744 7369.92,356.341 7367.22,356.133C7370.7,358.577 7372.44,362.71 7372.44,368.534C7372.44,372.174 7370.49,379.987 7366.6,391.972C7362.69,403.958 7358.46,416.06 7353.88,428.279C7349.31,440.499 7345.38,451.99 7342.1,462.754C7338.83,473.518 7337.66,479.861 7338.59,481.785C7338.33,481.785 7337.98,481.772 7337.54,481.746C7337.1,481.72 7336.22,481.577 7334.89,481.317C7333.56,481.057 7332.32,480.745 7331.15,480.381C7329.98,480.017 7328.66,479.432 7327.21,478.626C7325.75,477.82 7324.5,476.897 7323.46,475.857C7322.42,474.817 7321.54,473.453 7320.81,471.763C7320.08,470.073 7319.72,468.214 7319.72,466.186C7319.72,462.39 7320.99,456.514 7323.54,448.559C7326.09,440.603 7329.18,432.101 7332.82,423.054C7336.46,414.006 7340.11,405.01 7343.78,396.067C7347.45,387.123 7350.55,378.869 7353.1,371.303C7355.65,363.737 7356.95,358.343 7357,355.119C7351.18,354.599 7345.64,354.443 7340.39,354.651C7335.14,354.859 7330.56,355.366 7326.66,356.172C7322.76,356.978 7319.78,358.486 7317.73,360.695C7315.68,362.905 7314.91,365.726 7315.43,369.158ZM7637.32,475.574C7636.19,476.353 7635.89,478.059 7636.7,479.171C7637.28,480.042 7638.39,480.401 7639.39,480.271C7644.3,479.837 7649.16,478.787 7653.79,477.094C7658.58,475.323 7663.2,472.701 7666.53,468.767C7670.57,464 7671.99,457.35 7671.02,451.258C7670.72,449.026 7669.84,446.945 7669.04,444.869C7673.58,433.929 7678.25,423.032 7682.82,412.099C7683.2,411.185 7683,410.053 7682.31,409.34C7681.76,408.721 7680.92,408.53 7680.17,408.256C7681.69,403.618 7683.05,398.927 7684.37,394.226C7686.94,384.948 7689.27,375.602 7691.06,366.143C7691.91,361.409 7692.7,356.644 7692.86,351.829C7692.9,349.931 7692.88,347.973 7692.19,346.174L7691.98,345.762C7691.23,344.517 7689.76,343.698 7688.3,343.971C7686.57,344.301 7685.3,345.652 7684.24,346.965C7682.16,349.662 7680.55,352.681 7678.95,355.687C7674.48,364.454 7670.69,373.556 7667.14,382.731C7664.68,389.057 7662.46,395.47 7660.31,401.9C7659.51,401.658 7658.67,401.25 7657.82,401.53C7656.82,401.751 7656.11,402.675 7655.91,403.646C7653.3,415.03 7650.69,426.413 7648.07,437.794C7645.93,438.906 7643.93,440.294 7642.18,441.948C7639.66,444.332 7637.77,447.489 7637.35,450.973C7636.87,453.662 7637.3,456.574 7638.95,458.801C7640.54,460.954 7642.24,463.111 7643.05,465.697C7643.4,466.813 7643.29,468.027 7642.91,469.118C7641.86,471.84 7639.63,473.898 7637.32,475.574ZM7782.48,466.654L7782.32,466.654C7776.91,466.654 7772.6,465.042 7769.37,461.818C7766.15,458.594 7764.54,454.226 7764.54,448.715C7764.54,448.054 7764.56,447.361 7764.6,446.635C7762.7,449.282 7760.68,451.821 7758.53,454.252C7755.36,457.84 7751.86,460.804 7748.04,463.144C7744.22,465.484 7740.59,466.654 7737.16,466.654C7732.48,466.654 7729.2,465.276 7727.33,462.52C7725.46,459.764 7724.68,455.552 7724.99,449.885C7724.73,450.301 7724.39,450.872 7723.98,451.6C7723.56,452.328 7722.65,453.628 7721.25,455.5C7719.85,457.372 7718.41,459.01 7716.96,460.414C7715.5,461.818 7713.71,463.105 7711.58,464.275C7709.44,465.445 7707.36,466.03 7705.34,466.03C7697.8,466.03 7692.68,462.182 7689.97,454.486C7687.42,446.999 7687.55,437.613 7690.36,426.33C7693.17,414.89 7697.9,405.062 7704.56,396.847C7712.41,387.279 7720.99,382.469 7730.3,382.417C7733.83,382.417 7737.74,384.211 7742.03,387.799C7746.32,391.387 7748.47,394.663 7748.47,397.627C7748.47,401.111 7748,403.945 7747.07,406.128C7751.54,408.624 7753.44,411.38 7752.76,414.396C7752.24,416.424 7751.38,419.206 7750.19,422.742C7748.99,426.278 7747.96,429.384 7747.1,432.062C7746.25,434.74 7745.53,437.418 7744.96,440.096C7744.39,442.774 7744.38,444.854 7744.92,446.336C7745.47,447.818 7746.65,448.559 7748.47,448.559C7750.7,448.559 7753.44,446.778 7756.66,443.216C7759.88,439.654 7762.93,435.403 7765.78,430.463C7767.55,427.413 7769.09,424.431 7770.4,421.52C7771.99,416.527 7773.35,412.411 7774.48,409.17C7775.76,405.53 7777.67,400.149 7780.21,393.025L7766.64,393.025C7766.69,392.557 7766.89,391.92 7767.23,391.114C7767.57,390.308 7768.09,389.346 7768.79,388.228C7769.49,387.11 7770.53,386.161 7771.91,385.381C7773.28,384.601 7774.88,384.211 7776.7,384.211L7783.41,384.211C7786.32,376.1 7788.46,369.704 7789.81,365.024C7791.16,360.344 7791.63,357.199 7791.21,355.587C7791.42,355.535 7791.73,355.496 7792.15,355.47C7792.56,355.444 7793.33,355.431 7794.45,355.431C7795.57,355.431 7796.65,355.509 7797.69,355.665C7798.73,355.821 7799.88,356.107 7801.16,356.523C7802.43,356.939 7803.52,357.485 7804.43,358.161C7805.34,358.836 7806.11,359.772 7806.73,360.968C7807.36,362.164 7807.67,363.568 7807.67,365.18C7807.67,365.96 7807.5,367.052 7807.16,368.456C7806.82,369.86 7806.47,371.173 7806.11,372.395C7805.74,373.617 7805.16,375.515 7804.35,378.089C7803.55,380.662 7802.91,382.703 7802.44,384.211L7815.23,384.211C7815.18,384.472 7815.1,384.797 7815,385.186C7814.9,385.576 7814.6,386.278 7814.1,387.292C7813.61,388.306 7813.06,389.203 7812.47,389.983C7811.87,390.763 7811.04,391.465 7809.97,392.089C7808.9,392.713 7807.72,393.025 7806.42,393.025L7799.56,393.025C7798.78,395.678 7797.35,399.98 7795.27,405.933C7793.19,411.887 7791.39,417.204 7789.89,421.884C7788.38,426.564 7786.96,431.373 7785.64,436.313C7784.31,441.253 7783.71,445.114 7783.84,447.896C7783.97,450.678 7784.95,452.068 7786.77,452.068C7789.94,452.068 7793.28,450.833 7796.79,448.364C7800.3,445.894 7803.5,442.774 7806.38,439.004C7809.27,435.234 7811.84,431.36 7814.1,427.383C7815.37,425.152 7816.48,422.999 7817.43,420.924C7819.67,412.706 7823.28,405.357 7828.26,398.875C7835.75,389.047 7844.77,383.691 7855.32,382.807C7856.31,382.703 7857.3,382.651 7858.29,382.651C7864.27,382.651 7868.22,385.225 7870.14,390.373C7871.96,395.261 7871.57,401.059 7868.97,407.766C7866.22,414.838 7861.88,420.402 7855.95,424.458C7849.61,428.773 7842.61,430.385 7834.97,429.293C7833.93,436.625 7834.12,442.527 7835.55,446.999C7836.98,451.47 7839.83,453.706 7844.09,453.706C7847.11,453.706 7850.19,452.9 7853.34,451.288C7856.48,449.677 7859.38,447.571 7862.03,444.971C7864.68,442.371 7867.22,439.407 7869.64,436.079C7872.06,432.751 7874.16,429.41 7875.95,426.057C7877.75,422.703 7879.27,419.414 7880.52,416.19C7881.66,416.19 7882.55,416.71 7883.17,417.75C7883.85,418.79 7884.18,420.168 7884.18,421.884C7884.18,423.6 7883.66,425.875 7882.62,428.708C7881.58,431.542 7880.13,434.649 7878.26,438.029C7876.38,441.409 7874.01,444.802 7871.12,448.208C7868.23,451.613 7865.09,454.72 7861.68,457.528C7858.28,460.336 7854.35,462.611 7849.9,464.353C7845.46,466.095 7840.92,466.966 7836.29,466.966C7828.03,466.966 7822.05,463.092 7818.35,455.344C7816.28,450.938 7815.15,445.875 7814.98,440.154C7814.68,440.637 7814.38,441.125 7814.06,441.617C7811.41,445.777 7808.48,449.729 7805.25,453.472C7802.03,457.216 7798.37,460.349 7794.29,462.871C7790.21,465.393 7786.27,466.654 7782.48,466.654ZM7176.4,424.56C7179.06,413.39 7183.31,403.944 7189.15,396.223C7196.12,387.019 7204,382.417 7212.78,382.417C7213.62,382.417 7214.42,382.469 7215.2,382.573C7215.98,382.677 7216.67,382.794 7217.27,382.924C7217.87,383.054 7218.48,383.275 7219.1,383.587C7219.73,383.899 7220.22,384.146 7220.59,384.328C7220.95,384.51 7221.39,384.848 7221.91,385.342C7222.43,385.836 7222.8,386.161 7223,386.317C7223.21,386.473 7223.55,386.863 7224.02,387.487C7224.49,388.111 7224.76,388.475 7224.84,388.579C7224.91,388.683 7225.19,389.086 7225.65,389.788C7226.12,390.49 7226.36,390.867 7226.36,390.919C7232.86,372.616 7236.65,361.462 7237.74,357.459C7239.56,351.063 7239.95,346.669 7238.91,344.277C7239.95,344.069 7240.98,343.887 7241.99,343.731C7243.01,343.575 7244.26,343.458 7245.74,343.38C7247.22,343.302 7248.56,343.406 7249.76,343.692C7250.95,343.978 7252.11,344.407 7253.23,344.979C7254.35,345.551 7255.23,346.448 7255.88,347.67C7256.53,348.892 7256.85,350.361 7256.85,352.077C7256.85,357.069 7253.71,369.262 7247.42,388.657C7240.81,408.936 7236.94,421.182 7235.79,425.394C7231.38,440.733 7230.83,448.403 7234.16,448.403C7236.91,448.403 7240.06,446.596 7243.59,442.982C7247.13,439.368 7250.32,435.143 7253.15,430.307C7255.03,427.104 7256.65,423.959 7258.01,420.869C7258.56,419.248 7259.13,417.636 7259.7,416.034C7262.12,409.274 7264.19,402.814 7265.9,396.652C7267.62,390.49 7268.22,386.603 7267.69,384.991L7271.2,384.523C7278.38,384.003 7282.93,385.459 7284.85,388.891C7285.43,390.035 7285.71,391.309 7285.71,392.713C7285.71,395.885 7283.61,403.503 7279.4,415.566C7274.87,428.409 7272.22,436.833 7271.44,440.837C7270.35,446.453 7270.97,449.261 7273.31,449.261C7277.47,449.261 7282.12,445.92 7287.27,439.238C7292.42,432.556 7296.71,424.874 7300.14,416.19C7302.38,417.074 7303.5,419.206 7303.5,422.586C7303.5,424.354 7302.76,426.98 7301.27,430.463C7299.79,433.947 7297.7,437.743 7294.99,441.851C7292.29,445.959 7289.29,449.872 7285.99,453.589C7282.68,457.307 7278.97,460.414 7274.83,462.91C7270.7,465.406 7266.73,466.654 7262.94,466.654C7254.2,466.654 7249.83,461.792 7249.83,452.068C7249.83,451.593 7249.86,451.068 7249.91,450.496C7248.61,452.091 7247.24,453.629 7245.82,455.11C7242.57,458.49 7238.91,461.259 7234.86,463.417C7230.8,465.575 7226.85,466.654 7223,466.654C7218.74,466.654 7215.35,464.886 7212.82,461.35C7210.3,457.814 7209.04,454.252 7209.04,450.665C7201.87,461.22 7194.53,466.498 7187.05,466.498C7181.48,466.498 7177.64,462.936 7175.5,455.812C7174.49,452.364 7173.95,448.514 7173.9,444.262C7172.94,445.575 7171.9,446.891 7170.78,448.208C7167.9,451.613 7164.75,454.72 7161.35,457.528C7157.94,460.336 7154.02,462.611 7149.57,464.353C7145.12,466.095 7140.59,466.966 7135.96,466.966C7127.69,466.966 7121.71,463.092 7118.02,455.344C7114.59,448.065 7113.76,438.991 7115.52,428.123C7117.4,416.944 7121.53,407.194 7127.93,398.875C7135.41,389.047 7144.43,383.691 7154.99,382.807C7155.98,382.703 7156.97,382.651 7157.95,382.651C7163.93,382.651 7167.89,385.225 7169.81,390.373C7171.63,395.261 7171.24,401.059 7168.64,407.766C7165.88,414.838 7161.54,420.402 7155.61,424.458C7149.27,428.773 7142.28,430.385 7134.63,429.293C7133.59,436.625 7133.79,442.527 7135.22,446.999C7136.65,451.47 7139.49,453.706 7143.76,453.706C7146.77,453.706 7149.86,452.9 7153,451.288C7156.15,449.677 7159.05,447.571 7161.7,444.971C7164.35,442.371 7166.88,439.407 7169.3,436.079C7171.72,432.751 7173.83,429.41 7175.62,426.057C7175.89,425.556 7176.15,425.057 7176.4,424.56ZM7710.8,452.77C7713.61,452.77 7717.35,448.507 7722.03,439.979C7727.12,430.775 7731.13,421 7734.04,410.652C7737.11,399.889 7737.34,393.623 7734.74,391.855C7734.33,391.543 7733.83,391.387 7733.26,391.387C7729.62,391.387 7725.28,395.469 7720.24,403.633C7715.09,412.004 7711.08,421.182 7708.22,431.165C7705.31,441.565 7705.08,448.273 7707.52,451.288C7708.35,452.276 7709.44,452.77 7710.8,452.77ZM7618.68,393.493C7615.25,393.493 7610.63,398.719 7604.84,409.17C7599.04,419.622 7593.02,432.907 7586.78,449.027C7594.11,453.602 7601.16,451.86 7607.92,443.801C7613.12,437.613 7617.2,429.163 7620.16,418.452C7622.61,409.404 7623.28,402.463 7622.19,397.627C7621.62,394.871 7620.45,393.493 7618.68,393.493ZM7195.78,450.509C7198.43,450.509 7201.36,448.923 7204.56,445.751C7207.76,442.579 7209.95,439.277 7211.15,435.845C7213.38,430.125 7216.53,420.948 7220.59,408.312C7221.57,404.984 7221.96,402.086 7221.76,399.616C7221.55,397.146 7220.95,395.183 7219.96,393.727C7218.97,392.271 7217.8,391.543 7216.45,391.543C7212.24,391.543 7207.79,395.937 7203.11,404.724C7198.75,413.044 7195.55,422.222 7193.52,432.257C7191.65,441.617 7191.78,447.441 7193.91,449.729C7194.43,450.249 7195.05,450.509 7195.78,450.509ZM7653.46,437.634C7655.8,427.568 7658.09,417.485 7660.41,407.416C7665.91,409.179 7671.39,410.95 7676.88,412.731C7672.88,422.267 7668.84,431.784 7664.84,441.322C7661.04,440.104 7657.24,438.901 7653.46,437.634ZM7431.18,391.075C7429.3,391.075 7427.43,391.816 7425.56,393.298C7423.69,394.78 7422.02,396.574 7420.57,398.68C7419.11,400.786 7417.68,403.256 7416.28,406.089C7414.88,408.923 7413.74,411.419 7412.89,413.577C7412.03,415.735 7411.26,417.88 7410.59,420.012C7417.19,420.792 7423.06,418.348 7428.21,412.68C7431.96,408.624 7434.27,404.179 7435.15,399.343C7435.99,395.183 7435.31,392.557 7433.13,391.465C7432.55,391.205 7431.9,391.075 7431.18,391.075ZM7858.44,391.075C7856.57,391.075 7854.7,391.816 7852.83,393.298C7850.96,394.78 7849.29,396.574 7847.84,398.68C7846.38,400.786 7844.95,403.256 7843.55,406.089C7842.14,408.923 7841.01,411.419 7840.15,413.577C7839.3,415.735 7838.53,417.88 7837.85,420.012C7844.46,420.792 7850.33,418.348 7855.48,412.68C7859.23,408.624 7861.54,404.179 7862.42,399.343C7863.25,395.183 7862.58,392.557 7860.39,391.465C7859.82,391.205 7859.17,391.075 7858.44,391.075ZM7158.11,391.075C7156.24,391.075 7154.37,391.816 7152.49,393.298C7150.62,394.78 7148.96,396.574 7147.5,398.68C7146.05,400.786 7144.62,403.256 7143.21,406.089C7141.81,408.923 7140.68,411.419 7139.82,413.577C7138.96,415.735 7138.19,417.88 7137.52,420.012C7144.12,420.792 7150,418.348 7155.15,412.68C7158.89,408.624 7161.2,404.179 7162.09,399.343C7162.92,395.183 7162.24,392.557 7160.06,391.465C7159.49,391.205 7158.84,391.075 7158.11,391.075ZM7285.4,352.545C7289.72,352.545 7292.47,354.339 7293.67,357.927C7294.76,361.202 7294.32,364.66 7292.34,368.3C7290.16,372.304 7286.99,374.67 7282.83,375.398L7280.64,375.554C7276.28,375.554 7273.49,373.76 7272.3,370.172C7271.26,366.896 7271.75,363.438 7273.78,359.798C7275.96,355.795 7279.11,353.429 7283.22,352.701L7285.4,352.545Z" style="fill:white;"/>
        </g>
    </g>
</svg>
