<?xml version="1.0" encoding="UTF-8" standalone="no"?>
<!DOCTYPE svg PUBLIC "-//W3C//DTD SVG 1.1//EN" "http://www.w3.org/Graphics/SVG/1.1/DTD/svg11.dtd">
<svg width="100%" height="100%" viewBox="0 0 18 18" version="1.1" xmlns="http://www.w3.org/2000/svg" xmlns:xlink="http://www.w3.org/1999/xlink" xml:space="preserve" xmlns:serif="http://www.serif.com/" style="fill-rule:evenodd;clip-rule:evenodd;stroke-linejoin:round;stroke-miterlimit:2;">
    <g transform="matrix(1,0,0,1,-1329.36,-532.313)">
        <g transform="matrix(1,0,0,1,-1174.71,-552.756)">
            <g transform="matrix(0.983809,0,0,0.983809,1425.77,560.791)">
                <rect x="1096.04" y="532.907" width="18.296" height="18.296" style="fill:white;fill-opacity:0;"/>
            </g>
            <g transform="matrix(2.66133e-17,-0.434629,0.434629,2.66133e-17,295.344,5894.2)">
                <path d="M11043.4,5093.71L11038.8,5093.71C11037.8,5093.71 11036.9,5094.58 11036.9,5095.65L11036.9,5099.51C11036.9,5100.58 11037.8,5101.44 11038.8,5101.44L11043.4,5101.44L11043.4,5103.68L11036,5103.68C11034.9,5103.68 11034,5104.55 11034,5105.61L11034,5109.48C11034,5110.55 11034.9,5111.41 11036,5111.41L11043.4,5111.41L11043.4,5113.81C11043.4,5114.27 11043.8,5114.64 11044.2,5114.64C11044.7,5114.64 11045,5114.27 11045,5113.81L11045,5111.41L11052.5,5111.41C11053.5,5111.41 11054.4,5110.55 11054.4,5109.48L11054.4,5105.61C11054.4,5104.55 11053.5,5103.68 11052.5,5103.68L11045,5103.68L11045,5101.44L11049.6,5101.44C11050.7,5101.44 11051.5,5100.58 11051.5,5099.51L11051.5,5095.65C11051.5,5094.58 11050.7,5093.71 11049.6,5093.71L11045,5093.71L11045,5091.32C11045,5090.86 11044.7,5090.48 11044.2,5090.48C11043.8,5090.48 11043.4,5090.86 11043.4,5091.32L11043.4,5093.71Z" style="fill:white;"/>
            </g>
        </g>
    </g>
</svg>
