<?xml version="1.0" encoding="UTF-8" standalone="no"?>
<!DOCTYPE svg PUBLIC "-//W3C//DTD SVG 1.1//EN" "http://www.w3.org/Graphics/SVG/1.1/DTD/svg11.dtd">
<svg width="100%" height="100%" viewBox="0 0 48 48" version="1.1" xmlns="http://www.w3.org/2000/svg" xmlns:xlink="http://www.w3.org/1999/xlink" xml:space="preserve" xmlns:serif="http://www.serif.com/" style="fill-rule:evenodd;clip-rule:evenodd;stroke-linejoin:round;stroke-miterlimit:2;">
    <g transform="matrix(1,0,0,1,-3668.57,-702.309)">
        <g transform="matrix(0.325506,0,0,0.325506,795.272,272.475)">
            <g transform="matrix(1,0,0,1,12.0565,4.17233)">
                <circle cx="8888.85" cy="1390.07" r="73.731" style="fill:white;"/>
            </g>
            <g transform="matrix(3.07214,0,0,3.07214,-2443.18,-837.08)">
                <path d="M3692.57,702.309C3705.82,702.309 3716.57,713.063 3716.57,726.309C3716.57,739.555 3705.82,750.309 3692.57,750.309C3679.33,750.309 3668.57,739.555 3668.57,726.309C3668.57,713.063 3679.33,702.309 3692.57,702.309ZM3693.06,703.289L3693.06,703.318L3696.29,706.808L3693.06,706.808L3693.06,724.606C3693.8,724.818 3694.34,725.501 3694.34,726.309C3694.34,727.286 3693.55,728.08 3692.57,728.08C3691.6,728.08 3690.8,727.286 3690.8,726.309C3690.8,725.501 3691.35,724.818 3692.09,724.606L3692.09,706.808L3688.86,706.808L3692.09,703.318L3692.09,703.289C3679.6,703.549 3669.55,713.764 3669.55,726.309C3669.55,739.017 3679.87,749.334 3692.57,749.334C3705.28,749.334 3715.6,739.017 3715.6,726.309C3715.6,713.764 3705.54,703.549 3693.06,703.289Z" style="fill:rgb(173,60,175);"/>
            </g>
        </g>
    </g>
</svg>
