<?xml version="1.0" encoding="UTF-8" standalone="no"?>
<!DOCTYPE svg PUBLIC "-//W3C//DTD SVG 1.1//EN" "http://www.w3.org/Graphics/SVG/1.1/DTD/svg11.dtd">
<svg width="100%" height="100%" viewBox="0 0 12 12" version="1.1" xmlns="http://www.w3.org/2000/svg" xmlns:xlink="http://www.w3.org/1999/xlink" xml:space="preserve" xmlns:serif="http://www.serif.com/" style="fill-rule:evenodd;clip-rule:evenodd;stroke-linejoin:round;stroke-miterlimit:2;">
    <g transform="matrix(1,0,0,1,-952.264,-570.684)">
        <g transform="matrix(1,0,0,1,-1174.71,-552.756)">
            <g transform="matrix(0.378915,0,0,0.378919,-208.509,771.833)">
                <path d="M6192.13,928.464L6178.13,942.649C6177.43,943.358 6177.42,944.496 6178.11,945.213L6191.46,959.028C6192.17,959.756 6193.33,959.776 6194.06,959.073C6194.79,958.369 6194.81,957.206 6194.1,956.478L6182,943.951C6182,943.951 6194.74,931.042 6194.74,931.042C6195.45,930.321 6195.44,929.159 6194.72,928.447C6194,927.736 6192.84,927.743 6192.13,928.464ZM6178.13,928.464L6164.13,942.649C6163.43,943.358 6163.42,944.496 6164.11,945.213L6177.46,959.028C6178.17,959.756 6179.33,959.776 6180.06,959.073C6180.79,958.369 6180.81,957.206 6180.1,956.478L6168,943.951C6168,943.951 6180.74,931.042 6180.74,931.042C6181.45,930.321 6181.44,929.159 6180.72,928.447C6180,927.736 6178.84,927.743 6178.13,928.464Z" style="fill:white;"/>
            </g>
        </g>
    </g>
</svg>
