<?xml version="1.0" encoding="UTF-8" standalone="no"?>
<!DOCTYPE svg PUBLIC "-//W3C//DTD SVG 1.1//EN" "http://www.w3.org/Graphics/SVG/1.1/DTD/svg11.dtd">
<svg width="100%" height="100%" viewBox="0 0 18 18" version="1.1" xmlns="http://www.w3.org/2000/svg" xmlns:xlink="http://www.w3.org/1999/xlink" xml:space="preserve" xmlns:serif="http://www.serif.com/" style="fill-rule:evenodd;clip-rule:evenodd;stroke-linejoin:round;stroke-miterlimit:2;">
    <g transform="matrix(1,0,0,1,-1096.36,-532.313)">
        <g transform="matrix(1,0,0,1,-1174.71,-552.756)">
            <g transform="matrix(0.983809,0,0,0.983809,1192.77,560.791)">
                <rect x="1096.04" y="532.907" width="18.296" height="18.296" style="fill:white;fill-opacity:0;"/>
            </g>
            <g transform="matrix(0.223117,0,0,0.223117,1617.95,571.284)">
                <path d="M2949.85,2361.88C2949.85,2362.82 2950.17,2363.62 2950.82,2364.26C2951.46,2364.91 2952.23,2365.23 2953.17,2365.23L2971.12,2365.23C2975.76,2365.23 2979.3,2364.04 2981.74,2361.66C2984.19,2359.28 2985.41,2356.03 2985.41,2351.91C2985.41,2349.23 2984.87,2347.05 2983.77,2345.31C2982.68,2343.57 2980.94,2342.25 2978.53,2341.32C2979.94,2340.64 2981.1,2339.51 2982,2337.91C2982.9,2336.3 2983.35,2334.46 2983.35,2332.37C2983.35,2330.79 2983.1,2329.35 2982.61,2328.03C2982.13,2326.71 2981.36,2325.51 2980.33,2324.42C2979.3,2323.33 2977.88,2322.49 2976.11,2321.88C2974.34,2321.27 2972.25,2320.98 2969.84,2320.98L2953.07,2320.98C2952.14,2320.98 2951.33,2321.3 2950.69,2321.94C2950.04,2322.59 2949.72,2323.39 2949.72,2324.32C2949.72,2325.26 2950.04,2326.06 2950.69,2326.74C2951.33,2327.41 2952.1,2327.74 2953.04,2327.74L2954.1,2327.74L2954.1,2358.63L2953.04,2358.63C2952.1,2358.63 2951.3,2358.95 2950.66,2359.63C2950.01,2360.3 2949.69,2361.11 2949.69,2362.04L2949.85,2361.88ZM2961.76,2358.53L2961.76,2345.63L2970.99,2345.63C2973.15,2345.63 2974.76,2346.21 2975.86,2347.34C2976.95,2348.46 2977.5,2350.04 2977.5,2352.07C2977.5,2356.38 2975.34,2358.53 2970.99,2358.53L2961.76,2358.53ZM2961.76,2339.16L2961.76,2327.9L2969.8,2327.9C2973.7,2327.9 2975.66,2329.76 2975.66,2333.5C2975.66,2335.24 2975.18,2336.62 2974.21,2337.65C2973.25,2338.68 2971.77,2339.19 2969.77,2339.19L2961.76,2339.16Z" style="fill:white;fill-rule:nonzero;"/>
            </g>
        </g>
    </g>
</svg>
