<?xml version="1.0" encoding="UTF-8" standalone="no"?>
<!DOCTYPE svg PUBLIC "-//W3C//DTD SVG 1.1//EN" "http://www.w3.org/Graphics/SVG/1.1/DTD/svg11.dtd">
<svg width="100%" height="100%" viewBox="0 0 18 18" version="1.1" xmlns="http://www.w3.org/2000/svg" xmlns:xlink="http://www.w3.org/1999/xlink" xml:space="preserve" xmlns:serif="http://www.serif.com/" style="fill-rule:evenodd;clip-rule:evenodd;stroke-linejoin:round;stroke-miterlimit:2;">
    <g transform="matrix(1,0,0,1,-1169.36,-532.313)">
        <g transform="matrix(0.941176,0,0,0.941176,-2534.27,-1238.92)">
            <g transform="matrix(1.05854,0,0,1.05854,2774.17,1318.69)">
                <rect x="1096.73" y="532.098" width="18.067" height="18.067" style="fill:white;fill-opacity:0;"/>
            </g>
            <g transform="matrix(1.0625,0,0,1.0625,2692.66,1316.36)">
                <path d="M1180.07,543.989C1180.07,544.65 1180.29,545.188 1180.73,545.598C1181.16,546.007 1181.75,546.215 1182.46,546.215C1183.4,546.215 1184.04,545.928 1184.39,545.361C1184.39,545.54 1184.47,545.698 1184.61,545.828C1184.75,545.957 1184.92,546.021 1185.11,546.021L1186.31,546.021C1186.49,546.021 1186.64,545.957 1186.77,545.828C1186.9,545.698 1186.97,545.54 1186.97,545.361C1186.97,545.181 1186.9,545.023 1186.77,544.894C1186.64,544.765 1186.49,544.7 1186.31,544.7L1185.95,544.7L1185.95,541.598C1185.95,540.823 1185.69,540.219 1185.18,539.789C1184.66,539.358 1183.94,539.142 1183.03,539.142C1181.99,539.142 1181.18,539.458 1180.62,540.083C1180.5,540.219 1180.43,540.377 1180.43,540.557C1180.43,540.751 1180.5,540.916 1180.63,541.052C1180.77,541.189 1180.93,541.253 1181.13,541.253C1181.28,541.253 1181.42,541.203 1181.56,541.11C1181.8,540.938 1182.03,540.801 1182.26,540.701C1182.49,540.6 1182.74,540.55 1183.03,540.55C1183.45,540.55 1183.79,540.65 1184.02,540.851C1184.26,541.052 1184.37,541.318 1184.37,541.656L1184.37,541.921L1182.44,541.921C1181.77,541.921 1181.2,542.101 1180.74,542.467C1180.28,542.833 1180.05,543.343 1180.05,543.996L1180.07,543.989ZM1169.75,545.285C1169.75,545.489 1169.82,545.665 1169.97,545.806C1170.12,545.95 1170.3,546.021 1170.51,546.021L1172.73,546.021C1172.93,546.021 1173.11,545.95 1173.27,545.806C1173.42,545.662 1173.49,545.49 1173.49,545.282C1173.49,545.074 1173.42,544.894 1173.27,544.743C1173.11,544.592 1172.93,544.521 1172.73,544.521L1172.5,544.521L1172.95,543.436L1176.45,543.436L1176.88,544.521L1176.64,544.521C1176.43,544.521 1176.25,544.592 1176.1,544.743C1175.95,544.894 1175.88,545.074 1175.88,545.282C1175.88,545.49 1175.95,545.67 1176.1,545.813C1176.25,545.957 1176.43,546.029 1176.64,546.029L1178.86,546.029C1179.07,546.029 1179.25,545.957 1179.4,545.813C1179.55,545.67 1179.62,545.497 1179.62,545.289C1179.62,545.081 1179.55,544.901 1179.4,544.75C1179.25,544.6 1179.07,544.528 1178.86,544.528L1178.66,544.528L1175.52,536.658C1175.45,536.5 1175.36,536.371 1175.21,536.277C1175.07,536.184 1174.92,536.134 1174.76,536.134L1173.17,536.134C1172.96,536.134 1172.78,536.206 1172.63,536.349C1172.48,536.493 1172.41,536.672 1172.41,536.88C1172.41,537.089 1172.48,537.268 1172.63,537.419C1172.78,537.57 1172.96,537.642 1173.17,537.642L1173.48,537.642L1170.73,544.535L1170.51,544.535C1170.3,544.535 1170.12,544.607 1169.97,544.758C1169.82,544.906 1169.75,545.082 1169.75,545.285ZM1169.75,545.296L1169.75,545.275L1169.75,545.296ZM1181.64,543.996C1181.64,543.731 1181.73,543.523 1181.9,543.379C1182.08,543.235 1182.32,543.164 1182.64,543.164L1184.37,543.164L1184.37,543.573C1184.37,543.968 1184.22,544.291 1183.92,544.535C1183.63,544.779 1183.28,544.901 1182.87,544.901C1182.46,544.901 1182.15,544.822 1181.95,544.664C1181.75,544.506 1181.64,544.284 1181.64,543.996ZM1173.5,541.928L1174.69,538.69L1175.87,541.928L1173.5,541.928Z" style="fill:white;fill-rule:nonzero;"/>
            </g>
        </g>
    </g>
</svg>
