<?xml version="1.0" encoding="UTF-8" standalone="no"?>
<!DOCTYPE svg PUBLIC "-//W3C//DTD SVG 1.1//EN" "http://www.w3.org/Graphics/SVG/1.1/DTD/svg11.dtd">
<svg width="100%" height="100%" viewBox="0 0 16 16" version="1.1" xmlns="http://www.w3.org/2000/svg" xmlns:xlink="http://www.w3.org/1999/xlink" xml:space="preserve" xmlns:serif="http://www.serif.com/" style="fill-rule:evenodd;clip-rule:evenodd;stroke-linejoin:round;stroke-miterlimit:2;">
    <g transform="matrix(1,0,0,1,-744.322,-643.318)">
        <g transform="matrix(1,0,0,1,-1174.71,-552.756)">
            <g transform="matrix(1,0,0,1,-59.0452,-33.946)">
                <g transform="matrix(0.874497,0,0,0.874497,1019.59,763.994)">
                    <rect x="1096.04" y="532.907" width="18.296" height="18.296" style="fill:white;fill-opacity:0;"/>
                </g>
                <g transform="matrix(0.350099,0,0,0.350099,-869.029,846.227)">
                    <path d="M8164.43,1115.33C8164.44,1114.95 8164.31,1114.59 8164.05,1114.31C8163.79,1114.04 8163.43,1113.89 8163.05,1113.89C8159.56,1113.89 8150.7,1113.89 8147.21,1113.89C8146.84,1113.89 8146.47,1114.04 8146.22,1114.31C8145.95,1114.59 8145.82,1114.95 8145.84,1115.33C8146.02,1119.1 8146.52,1129.17 8146.7,1132.78C8146.74,1133.51 8147.34,1134.09 8148.08,1134.09L8162.19,1134.09C8162.92,1134.09 8163.53,1133.51 8163.56,1132.78C8163.74,1129.17 8164.24,1119.1 8164.43,1115.33ZM8159.99,1116.67L8159.25,1131.22C8159.23,1131.68 8159.58,1132.07 8160.04,1132.1C8160.5,1132.12 8160.89,1131.77 8160.91,1131.31L8161.66,1116.75C8161.68,1116.29 8161.33,1115.9 8160.87,1115.88C8160.41,1115.85 8160.02,1116.21 8159.99,1116.67ZM8148.69,1116.75L8149.44,1131.31C8149.46,1131.77 8149.86,1132.12 8150.31,1132.1C8150.77,1132.07 8151.13,1131.68 8151.1,1131.22L8150.36,1116.67C8150.33,1116.21 8149.94,1115.85 8149.48,1115.88C8149.02,1115.9 8148.67,1116.29 8148.69,1116.75ZM8154.39,1116.71L8154.39,1131.26C8154.39,1131.72 8154.76,1132.1 8155.22,1132.1C8155.68,1132.1 8156.06,1131.72 8156.06,1131.26L8156.06,1116.71C8156.06,1116.25 8155.68,1115.88 8155.22,1115.88C8154.76,1115.88 8154.39,1116.25 8154.39,1116.71ZM8166.25,1109.26C8166.13,1108.82 8165.73,1108.52 8165.28,1108.52C8161.89,1108.52 8148.39,1108.52 8145,1108.52C8144.55,1108.52 8144.15,1108.82 8144.03,1109.26C8143.9,1109.73 8143.73,1110.35 8143.58,1110.9C8143.5,1111.2 8143.56,1111.53 8143.75,1111.78C8143.94,1112.03 8144.24,1112.18 8144.56,1112.18C8148.73,1112.18 8161.55,1112.18 8165.72,1112.18C8166.04,1112.18 8166.34,1112.03 8166.53,1111.78C8166.72,1111.53 8166.78,1111.2 8166.7,1110.9C8166.55,1110.35 8166.38,1109.73 8166.25,1109.26ZM8152.73,1106.76L8152.73,1106.18C8152.73,1106.18 8157.57,1106.18 8157.57,1106.18C8157.57,1106.18 8157.57,1106.76 8157.57,1106.76L8159.65,1106.76L8159.65,1105.14C8159.65,1104.56 8159.19,1104.1 8158.61,1104.1L8151.69,1104.1C8151.11,1104.1 8150.65,1104.56 8150.65,1105.14L8150.65,1106.76L8152.73,1106.76Z" style="fill:white;"/>
                </g>
            </g>
        </g>
    </g>
</svg>
