<?xml version="1.0" encoding="UTF-8" standalone="no"?>
<!DOCTYPE svg PUBLIC "-//W3C//DTD SVG 1.1//EN" "http://www.w3.org/Graphics/SVG/1.1/DTD/svg11.dtd">
<svg width="100%" height="100%" viewBox="0 0 14 14" version="1.1" xmlns="http://www.w3.org/2000/svg" xmlns:xlink="http://www.w3.org/1999/xlink" xml:space="preserve" xmlns:serif="http://www.serif.com/" style="fill-rule:evenodd;clip-rule:evenodd;stroke-linejoin:round;stroke-miterlimit:2;">
    <g transform="matrix(1,0,0,1,-2284.86,-489.312)">
        <g transform="matrix(1,0,0,1,-1174.71,-552.756)">
            <g transform="matrix(0.294957,0,0,0.294957,1936.34,802.938)">
                <path d="M5164.24,855.026L5164.24,848.447C5164.28,846.98 5165.53,845.693 5166.99,845.594L5167.41,845.594C5168.92,845.676 5170.21,847.038 5170.18,848.554C5170.18,850.857 5170.18,851.803 5170.18,852.259C5182.04,852.257 5193.91,852.258 5205.78,852.258L5205.78,848.447C5205.81,846.98 5207.06,845.693 5208.52,845.594L5208.94,845.594C5210.45,845.676 5211.74,847.038 5211.71,848.554C5211.71,854.988 5211.71,850.829 5211.71,855L5211.71,855.005L5211.71,855.414C5211.69,855.631 5211.65,855.845 5211.59,856.053C5211.53,856.255 5211.45,856.451 5211.35,856.637C5211.2,856.927 5210.99,857.186 5210.75,857.405C5210.72,857.434 5210.69,857.462 5210.65,857.489L5210.65,857.494C5210.42,857.69 5210.16,857.844 5209.89,857.958C5209.59,858.083 5209.28,858.163 5208.96,858.191L5167.02,858.191C5166.98,858.188 5166.95,858.184 5166.91,858.18C5166.49,858.142 5166.09,858.005 5165.73,857.794C5165.43,857.622 5165.16,857.399 5164.94,857.13C5164.82,856.988 5164.71,856.833 5164.62,856.669C5164.41,856.298 5164.27,855.882 5164.24,855.448L5164.24,855.028L5164.24,855.026ZM5187.75,810.726L5188.17,810.726C5188.86,810.788 5189.53,811.063 5190.02,811.546C5190.63,812.117 5190.96,812.954 5190.94,813.787C5190.94,821.38 5190.94,828.972 5190.94,836.565C5192.77,834.75 5194.58,832.925 5196.4,831.109C5197.14,830.363 5198.3,830.069 5199.31,830.369C5200.35,830.657 5201.19,831.568 5201.39,832.634C5201.59,833.583 5201.28,834.615 5200.6,835.301C5197.14,838.766 5193.68,842.223 5190.22,845.686C5189.86,846.06 5189.43,846.375 5188.94,846.534C5187.89,846.903 5186.66,846.618 5185.88,845.827C5182.39,842.336 5178.9,838.842 5175.4,835.35C5174.84,834.804 5174.5,834.035 5174.5,833.252C5174.48,832.377 5174.88,831.51 5175.56,830.951C5176.65,829.986 5178.46,830.036 5179.5,831.063C5181.34,832.893 5183.17,834.733 5185.01,836.565C5185.01,828.907 5185,821.247 5185.01,813.588C5185.03,812.116 5186.29,810.827 5187.75,810.726Z" style="fill:white;fill-rule:nonzero;"/>
            </g>
        </g>
    </g>
</svg>
