<?xml version="1.0" encoding="UTF-8" standalone="no"?>
<!DOCTYPE svg PUBLIC "-//W3C//DTD SVG 1.1//EN" "http://www.w3.org/Graphics/SVG/1.1/DTD/svg11.dtd">
<svg width="100%" height="100%" viewBox="0 0 16 16" version="1.1" xmlns="http://www.w3.org/2000/svg" xmlns:xlink="http://www.w3.org/1999/xlink" xml:space="preserve" xmlns:serif="http://www.serif.com/" style="fill-rule:evenodd;clip-rule:evenodd;stroke-linejoin:round;stroke-miterlimit:2;">
    <g transform="matrix(1,0,0,1,-719.322,-643.318)">
        <g transform="matrix(1,0,0,1,-1174.71,-552.756)">
            <g transform="matrix(0.874497,0,0,0.874497,935.546,730.048)">
                <rect x="1096.04" y="532.907" width="18.296" height="18.296" style="fill:white;fill-opacity:0;"/>
            </g>
            <g transform="matrix(0.336077,0,0,0.336077,-633.789,710.711)">
                <path d="M7560.85,1463.69C7560.85,1461.57 7559.13,1459.84 7557.01,1459.84L7541.17,1459.84C7539.05,1459.84 7537.32,1461.57 7537.32,1463.69L7537.32,1479.78C7537.32,1481.9 7539.05,1483.63 7541.17,1483.63L7557.01,1483.63C7559.13,1483.63 7560.85,1481.9 7560.85,1479.78L7560.85,1463.69ZM7547.2,1469.85L7545.18,1469.85C7544.14,1469.85 7543.29,1470.69 7543.29,1471.74C7543.29,1472.78 7544.14,1473.62 7545.18,1473.62L7547.2,1473.62L7547.2,1475.64C7547.2,1476.68 7548.05,1477.53 7549.09,1477.53C7550.13,1477.53 7550.97,1476.68 7550.97,1475.64L7550.97,1473.62L7553,1473.62C7554.04,1473.62 7554.88,1472.78 7554.88,1471.74C7554.88,1470.69 7554.04,1469.85 7553,1469.85L7550.97,1469.85L7550.97,1467.83C7550.97,1466.79 7550.13,1465.94 7549.09,1465.94C7548.05,1465.94 7547.2,1466.79 7547.2,1467.83L7547.2,1469.85ZM7535.43,1476.16L7535.43,1461.79C7535.43,1459.67 7537.15,1457.95 7539.27,1457.95L7553.39,1457.95L7553.39,1456.23C7553.39,1454.11 7551.67,1452.38 7549.54,1452.38L7533.71,1452.38C7531.59,1452.38 7529.86,1454.11 7529.86,1456.23L7529.86,1472.32C7529.86,1474.44 7531.59,1476.16 7533.71,1476.16L7535.43,1476.16Z" style="fill:white;"/>
            </g>
        </g>
    </g>
</svg>
