<?xml version="1.0" encoding="UTF-8" standalone="no"?>
<!DOCTYPE svg PUBLIC "-//W3C//DTD SVG 1.1//EN" "http://www.w3.org/Graphics/SVG/1.1/DTD/svg11.dtd">
<svg width="100%" height="100%" viewBox="0 0 18 18" version="1.1" xmlns="http://www.w3.org/2000/svg" xmlns:xlink="http://www.w3.org/1999/xlink" xml:space="preserve" xmlns:serif="http://www.serif.com/" style="fill-rule:evenodd;clip-rule:evenodd;stroke-linejoin:round;stroke-miterlimit:2;">
    <g transform="matrix(1,0,0,1,-2030.31,-1510.29)">
        <g transform="matrix(1,0,0,1,-1174.71,-552.756)">
            <g transform="matrix(0.99627,0,0,0.99627,2112.39,1532.93)">
                <rect x="1096.73" y="532.098" width="18.067" height="18.067" style="fill:white;fill-opacity:0;"/>
            </g>
            <g transform="matrix(0.0287406,0,0,0.0287406,3206.66,2064.69)">
                <path d="M180.73,308.66C185.27,303.98 192.77,302.74 198.65,305.45C208.56,309.52 211.14,323.99 203.33,331.28C169.8,364.88 136.21,398.41 102.67,431.99C121.83,432.02 140.99,431.97 160.15,432.02C168.63,431.85 176.18,439.55 175.99,448C176.2,456.48 168.59,464.14 160.1,463.98C128.03,464.01 95.97,464.01 63.9,463.98C55.45,464.11 47.8,456.52 48.01,448.04C47.99,415.99 47.99,383.93 48.02,351.88C47.83,343.38 55.48,335.79 63.96,336.01C72.47,335.76 80.13,343.41 79.98,351.9C80.04,371.05 79.97,390.21 80.01,409.37C113.6,375.82 147.14,342.21 180.73,308.66ZM305.42,313.42C307.89,307.82 313.81,303.91 319.96,304.05C324.44,303.93 328.77,305.96 331.82,309.19C365.2,342.58 398.61,375.94 431.98,409.35C432.03,390.54 431.99,371.73 431.99,352.92C431.76,347.92 433.88,342.87 437.77,339.7C443.25,334.98 452.03,334.75 457.68,339.31C461.85,342.45 464.25,347.69 464,352.9C463.98,384.63 464.03,416.36 463.98,448.09C464.15,456.55 456.54,464.15 448.09,463.98C416.03,464.01 383.98,464.01 351.93,463.98C343.44,464.13 335.76,456.48 336.01,447.97C335.79,439.47 343.39,431.82 351.9,432.02C371.05,431.97 390.21,432.03 409.36,431.99C375.81,398.39 342.2,364.85 308.65,331.25C304,326.73 302.75,319.29 305.42,313.42ZM336.01,63.99C335.78,55.48 343.4,47.81 351.92,48.02C383.98,47.99 416.05,47.99 448.11,48.02C456.56,47.83 464.12,55.46 463.98,63.89C464.01,95.95 464.01,128.02 463.98,160.08C464.14,168.18 457.18,175.55 449.11,175.95C440.29,176.79 431.82,169.02 432.02,160.13C431.97,140.97 432.03,121.81 431.99,102.65C398.61,136.05 365.21,169.43 331.82,202.82C328.55,206.29 323.78,208.3 319,207.92C311.6,207.67 304.99,201.49 304.18,194.14C303.49,189.29 305.15,184.18 308.65,180.74C342.21,147.15 375.81,113.61 409.36,80.01C390.22,79.97 371.08,80.03 351.93,79.98C343.45,80.13 335.77,72.5 336.01,63.99ZM48.02,63.88C47.83,55.4 55.45,47.81 63.93,48.02C95.98,47.99 128.04,47.99 160.09,48.02C168.58,47.82 176.16,55.5 175.99,63.96C176.22,72.45 168.62,80.13 160.13,79.98C140.98,80.04 121.82,79.96 102.66,80.02C136.21,113.58 169.79,147.11 203.32,180.7C209.49,186.59 209.48,197.46 203.28,203.32C197.41,209.48 186.58,209.48 180.72,203.32C147.13,169.78 113.6,136.18 80.01,102.64C79.97,121.78 80.04,140.93 79.98,160.07C80.14,168.19 73.16,175.57 65.08,175.95C56.27,176.77 47.82,169.01 48.02,160.14C47.99,128.06 47.99,95.97 48.02,63.88Z" style="fill:rgb(115,116,117);fill-rule:nonzero;"/>
            </g>
        </g>
    </g>
</svg>
