<?xml version="1.0" encoding="UTF-8" standalone="no"?>
<!DOCTYPE svg PUBLIC "-//W3C//DTD SVG 1.1//EN" "http://www.w3.org/Graphics/SVG/1.1/DTD/svg11.dtd">
<svg width="100%" height="100%" viewBox="0 0 18 18" version="1.1" xmlns="http://www.w3.org/2000/svg" xmlns:xlink="http://www.w3.org/1999/xlink" xml:space="preserve" xmlns:serif="http://www.serif.com/" style="fill-rule:evenodd;clip-rule:evenodd;stroke-linejoin:round;stroke-miterlimit:2;">
    <g transform="matrix(1,0,0,1,-1445.36,-532.313)">
        <g transform="matrix(1,0,0,1,-1174.71,-552.756)">
            <g transform="matrix(0.983809,0,0,0.983809,1541.77,560.791)">
                <rect x="1096.04" y="532.907" width="18.296" height="18.296" style="fill:white;fill-opacity:0;"/>
            </g>
            <g transform="matrix(0.375097,0,0,0.375097,-331.662,674.251)">
                <path d="M7904.5,1132.82C7904.8,1133.12 7904.89,1133.57 7904.73,1133.96C7904.57,1134.35 7904.19,1134.6 7903.76,1134.6C7898.77,1134.6 7887.68,1134.6 7882.69,1134.6C7882.26,1134.6 7881.88,1134.35 7881.72,1133.96C7881.56,1133.57 7881.65,1133.12 7881.95,1132.82C7884.85,1129.92 7890.47,1124.3 7892.49,1122.28C7892.89,1121.87 7893.56,1121.87 7893.96,1122.28C7895.98,1124.3 7901.6,1129.92 7904.5,1132.82ZM7885.7,1132.31L7900.75,1132.31L7893.22,1124.78L7885.7,1132.31ZM7905.64,1118.31L7905.64,1118.31L7902.22,1118.31C7901.71,1118.31 7901.29,1118.73 7901.29,1119.25C7901.29,1119.77 7901.71,1120.19 7902.22,1120.19L7905.64,1120.19L7905.64,1120.19C7906,1120.19 7906.31,1119.98 7906.47,1119.69L7906.47,1119.68C7906.54,1119.55 7906.57,1119.4 7906.57,1119.25C7906.57,1118.73 7906.16,1118.31 7905.64,1118.31ZM7895.09,1120.19L7898.5,1120.19C7899.02,1120.19 7899.44,1119.77 7899.44,1119.25C7899.44,1118.73 7899.02,1118.31 7898.5,1118.31L7895.09,1118.31C7894.57,1118.31 7894.15,1118.73 7894.15,1119.25C7894.15,1119.77 7894.57,1120.19 7895.09,1120.19ZM7891.37,1118.31L7891.36,1118.31L7887.95,1118.31C7887.43,1118.31 7887.01,1118.73 7887.01,1119.25C7887.01,1119.77 7887.43,1120.19 7887.95,1120.19L7891.36,1120.19L7891.37,1120.19C7891.42,1120.19 7891.48,1120.18 7891.53,1120.17C7891.97,1120.1 7892.3,1119.71 7892.3,1119.25C7892.3,1118.73 7891.88,1118.31 7891.37,1118.31ZM7880.81,1120.19L7884.22,1120.19L7884.23,1120.19C7884.75,1120.18 7885.16,1119.77 7885.16,1119.25C7885.16,1118.73 7884.74,1118.31 7884.22,1118.31L7880.81,1118.31C7880.3,1118.31 7879.88,1118.73 7879.88,1119.25C7879.88,1119.77 7880.3,1120.19 7880.81,1120.19ZM7903.76,1103.84C7903.76,1103.84 7882.69,1103.84 7882.69,1103.84C7882.26,1103.84 7881.88,1104.1 7881.72,1104.49C7881.56,1104.88 7881.65,1105.33 7881.95,1105.63C7884.85,1108.53 7890.47,1114.15 7892.49,1116.16C7892.69,1116.37 7892.96,1116.47 7893.22,1116.47C7893.49,1116.47 7893.76,1116.37 7893.96,1116.16C7895.98,1114.15 7901.6,1108.53 7904.5,1105.63C7904.8,1105.33 7904.89,1104.88 7904.73,1104.49C7904.57,1104.1 7904.19,1103.84 7903.76,1103.84Z" style="fill:white;"/>
            </g>
        </g>
    </g>
</svg>
