<?xml version="1.0" encoding="UTF-8" standalone="no"?>
<!DOCTYPE svg PUBLIC "-//W3C//DTD SVG 1.1//EN" "http://www.w3.org/Graphics/SVG/1.1/DTD/svg11.dtd">
<svg width="100%" height="100%" viewBox="0 0 18 18" version="1.1" xmlns="http://www.w3.org/2000/svg" xmlns:xlink="http://www.w3.org/1999/xlink" xml:space="preserve" xmlns:serif="http://www.serif.com/" style="fill-rule:evenodd;clip-rule:evenodd;stroke-linejoin:round;stroke-miterlimit:2;">
    <g transform="matrix(1,0,0,1,-1416.36,-532.313)">
        <g transform="matrix(1,0,0,1,-1174.71,-552.756)">
            <g transform="matrix(0.983809,0,0,0.983809,1512.77,560.791)">
                <rect x="1096.04" y="532.907" width="18.296" height="18.296" style="fill:white;fill-opacity:0;"/>
            </g>
            <g transform="matrix(-0.375097,0,0,0.375097,5528.06,674.251)">
                <path d="M7805.94,1127.28L7805.93,1127.28C7805.41,1127.28 7804.99,1127.7 7804.99,1128.22L7804.99,1131.63C7804.99,1132.15 7805.41,1132.57 7805.93,1132.57L7805.94,1132.57C7806.45,1132.57 7806.87,1132.15 7806.87,1131.63L7806.87,1128.22C7806.87,1127.71 7806.45,1127.29 7805.94,1127.28ZM7808.71,1119.24C7808.71,1119.5 7808.82,1119.76 7809.02,1119.96C7811.03,1121.98 7816.65,1127.6 7819.55,1130.5C7819.85,1130.8 7820.3,1130.89 7820.69,1130.73C7821.08,1130.57 7821.34,1130.18 7821.34,1129.76C7821.34,1124.77 7821.34,1113.68 7821.34,1108.68C7821.34,1108.68 7821.34,1108.67 7821.34,1108.66C7821.33,1108.25 7821.08,1107.88 7820.69,1107.72C7820.3,1107.56 7819.85,1107.65 7819.55,1107.94C7816.65,1110.85 7811.03,1116.47 7809.02,1118.48C7808.81,1118.69 7808.7,1118.96 7808.71,1119.24ZM7792.36,1130.5C7792.06,1130.8 7791.61,1130.89 7791.22,1130.73C7790.83,1130.57 7790.57,1130.18 7790.57,1129.76C7790.57,1124.77 7790.57,1113.68 7790.57,1108.68C7790.57,1108.26 7790.83,1107.88 7791.22,1107.72C7791.61,1107.56 7792.06,1107.65 7792.36,1107.94C7795.26,1110.85 7800.89,1116.47 7802.9,1118.48C7803.31,1118.89 7803.31,1119.55 7802.9,1119.96C7800.89,1121.98 7795.26,1127.6 7792.36,1130.5ZM7792.87,1126.75L7800.4,1119.22L7792.87,1111.69L7792.87,1126.75ZM7805.94,1120.15L7805.93,1120.15C7805.41,1120.15 7804.99,1120.57 7804.99,1121.09L7804.99,1124.5C7804.99,1125.02 7805.41,1125.44 7805.93,1125.44L7805.94,1125.44C7806.45,1125.43 7806.87,1125.01 7806.87,1124.5L7806.87,1121.09C7806.87,1120.57 7806.45,1120.15 7805.94,1120.15ZM7805.94,1113.01L7805.93,1113.01C7805.41,1113.01 7804.99,1113.43 7804.99,1113.95L7804.99,1117.36C7804.99,1117.88 7805.41,1118.3 7805.93,1118.3L7805.94,1118.3C7806.45,1118.3 7806.87,1117.88 7806.87,1117.36L7806.87,1113.95C7806.87,1113.43 7806.45,1113.01 7805.94,1113.01ZM7805.94,1105.87L7805.93,1105.87C7805.41,1105.87 7804.99,1106.29 7804.99,1106.81L7804.99,1110.22C7804.99,1110.74 7805.41,1111.16 7805.93,1111.16L7805.94,1111.16C7806.45,1111.16 7806.87,1110.74 7806.87,1110.22L7806.87,1106.81C7806.87,1106.3 7806.45,1105.88 7805.94,1105.87Z" style="fill:white;"/>
            </g>
        </g>
    </g>
</svg>
