<?xml version="1.0" encoding="UTF-8" standalone="no"?>
<!DOCTYPE svg PUBLIC "-//W3C//DTD SVG 1.1//EN" "http://www.w3.org/Graphics/SVG/1.1/DTD/svg11.dtd">
<svg width="100%" height="100%" viewBox="0 0 18 18" version="1.1" xmlns="http://www.w3.org/2000/svg" xmlns:xlink="http://www.w3.org/1999/xlink" xml:space="preserve" xmlns:serif="http://www.serif.com/" style="fill-rule:evenodd;clip-rule:evenodd;stroke-linejoin:round;stroke-miterlimit:2;">
    <g transform="matrix(1,0,0,1,-1474.36,-532.313)">
        <g transform="matrix(1,0,0,1,-1174.71,-552.756)">
            <g transform="matrix(0.983809,0,0,0.983809,1570.77,560.791)">
                <rect x="1096.04" y="532.907" width="18.296" height="18.296" style="fill:white;fill-opacity:0;"/>
            </g>
            <g transform="matrix(0.404074,0,0,0.404074,-134.163,870.992)">
                <path d="M6898.92,540.798L6896.18,540.798C6895.37,540.798 6894.72,541.452 6894.72,542.257C6894.72,543.061 6895.37,543.715 6896.18,543.715L6898.92,543.715L6898.92,561.882C6898.92,562.688 6899.57,563.341 6900.38,563.341L6918.54,563.341L6918.54,566.079C6918.54,566.883 6919.2,567.537 6920,567.537C6920.81,567.537 6921.46,566.883 6921.46,566.079L6921.46,563.341L6924.2,563.341C6925,563.341 6925.66,562.687 6925.66,561.882C6925.66,561.077 6925,560.424 6924.2,560.424L6921.46,560.424L6921.46,542.257C6921.46,541.451 6920.81,540.798 6920,540.798L6901.83,540.798L6901.83,538.06C6901.83,537.255 6901.18,536.602 6900.38,536.602C6899.57,536.602 6898.92,537.255 6898.92,538.06L6898.92,540.798ZM6901.83,560.424L6918.54,560.424L6918.54,543.715L6901.83,543.715L6901.83,560.424Z" style="fill:white;"/>
            </g>
        </g>
    </g>
</svg>
