<?xml version="1.0" encoding="UTF-8" standalone="no"?>
<!DOCTYPE svg PUBLIC "-//W3C//DTD SVG 1.1//EN" "http://www.w3.org/Graphics/SVG/1.1/DTD/svg11.dtd">
<svg width="100%" height="100%" viewBox="0 0 18 18" version="1.1" xmlns="http://www.w3.org/2000/svg" xmlns:xlink="http://www.w3.org/1999/xlink" xml:space="preserve" xmlns:serif="http://www.serif.com/" style="fill-rule:evenodd;clip-rule:evenodd;stroke-linejoin:round;stroke-miterlimit:2;">
    <g transform="matrix(1,0,0,1,-1125.36,-532.313)">
        <g transform="matrix(1,0,0,1,-1174.71,-552.756)">
            <g transform="matrix(0.983809,0,0,0.983809,1221.77,560.791)">
                <rect x="1096.04" y="532.907" width="18.296" height="18.296" style="fill:white;fill-opacity:0;"/>
            </g>
            <g transform="matrix(0.223117,0,0,0.223117,1646.83,571.295)">
                <path d="M2956.21,2362.33C2956.21,2363.14 2956.47,2363.81 2957.01,2364.36C2957.56,2364.91 2958.24,2365.2 2959.04,2365.2L2969.47,2365.2C2970.5,2365.2 2971.43,2364.81 2972.23,2364.04C2973.04,2363.27 2973.46,2362.37 2973.46,2361.37C2973.46,2360.56 2973.2,2359.89 2972.65,2359.34C2972.11,2358.79 2971.43,2358.5 2970.62,2358.5L2969.24,2358.5L2974.71,2327.61L2976.03,2327.61C2977.06,2327.61 2977.99,2327.22 2978.83,2326.45C2979.67,2325.68 2980.09,2324.78 2980.09,2323.78C2980.09,2322.97 2979.83,2322.3 2979.28,2321.75C2978.74,2321.2 2978.06,2320.91 2977.26,2320.91L2966.86,2320.91C2965.83,2320.91 2964.9,2321.3 2964.06,2322.07C2963.22,2322.84 2962.8,2323.74 2962.8,2324.74C2962.8,2325.58 2963.06,2326.29 2963.61,2326.84C2964.16,2327.38 2964.83,2327.67 2965.64,2327.67L2967.09,2327.67L2961.61,2358.57L2960.23,2358.57C2959.2,2358.57 2958.27,2358.95 2957.43,2359.73C2956.59,2360.5 2956.18,2361.4 2956.18,2362.4L2956.21,2362.33Z" style="fill:white;fill-rule:nonzero;"/>
            </g>
        </g>
    </g>
</svg>
