<?xml version="1.0" encoding="UTF-8" standalone="no"?>
<!DOCTYPE svg PUBLIC "-//W3C//DTD SVG 1.1//EN" "http://www.w3.org/Graphics/SVG/1.1/DTD/svg11.dtd">
<svg width="100%" height="100%" viewBox="0 0 18 18" version="1.1" xmlns="http://www.w3.org/2000/svg" xmlns:xlink="http://www.w3.org/1999/xlink" xml:space="preserve" xmlns:serif="http://www.serif.com/" style="fill-rule:evenodd;clip-rule:evenodd;stroke-linejoin:round;stroke-miterlimit:2;">
    <g transform="matrix(1,0,0,1,-1503.36,-532.313)">
        <g transform="matrix(1,0,0,1,-1174.71,-552.756)">
            <g transform="matrix(0.983809,0,0,0.983809,1599.77,560.791)">
                <rect x="1096.04" y="532.907" width="18.296" height="18.296" style="fill:white;fill-opacity:0;"/>
            </g>
            <g transform="matrix(0.381087,0,0,0.381087,-387.467,667.633)">
                <path d="M8060.29,1115.36L8059.26,1115.36C8057.73,1115.36 8056.49,1116.6 8056.49,1118.14L8056.49,1131.31C8056.49,1132.84 8057.73,1134.09 8059.26,1134.09L8076.32,1134.09C8077.86,1134.09 8079.1,1132.84 8079.1,1131.31L8079.1,1118.14C8079.1,1116.6 8077.86,1115.36 8076.32,1115.36L8075.42,1115.36L8075.42,1111.48C8075.42,1107.3 8072.03,1103.91 8067.86,1103.91C8063.68,1103.91 8060.29,1107.3 8060.29,1111.48L8060.29,1115.36ZM8066.44,1125.02C8065.7,1124.57 8065.2,1123.75 8065.2,1122.82C8065.2,1121.39 8066.36,1120.23 8067.79,1120.23C8069.22,1120.23 8070.38,1121.39 8070.38,1122.82C8070.38,1123.75 8069.89,1124.57 8069.14,1125.02L8069.14,1127.82C8069.14,1128.56 8068.54,1129.17 8067.79,1129.17C8067.05,1129.17 8066.44,1128.56 8066.44,1127.82L8066.44,1125.02ZM8072.72,1115.36L8063,1115.36L8063,1111.48C8063,1108.79 8065.18,1106.62 8067.86,1106.62C8070.54,1106.62 8072.72,1108.79 8072.72,1111.48L8072.72,1115.36Z" style="fill:white;"/>
            </g>
        </g>
    </g>
</svg>
