<?xml version="1.0" encoding="UTF-8" standalone="no"?>
<!DOCTYPE svg PUBLIC "-//W3C//DTD SVG 1.1//EN" "http://www.w3.org/Graphics/SVG/1.1/DTD/svg11.dtd">
<svg width="100%" height="100%" viewBox="0 0 18 18" version="1.1" xmlns="http://www.w3.org/2000/svg" xmlns:xlink="http://www.w3.org/1999/xlink" xml:space="preserve" xmlns:serif="http://www.serif.com/" style="fill-rule:evenodd;clip-rule:evenodd;stroke-linejoin:round;stroke-miterlimit:2;">
    <g transform="matrix(1,0,0,1,-1198.36,-369.948)">
        <g transform="matrix(0.941176,0,0,0.941176,-2532.8,-1401.29)">
            <g transform="matrix(1.0453,0,0,1.0453,2818.66,1324.89)">
                <rect x="1096.04" y="532.907" width="18.296" height="18.296" style="fill:white;fill-opacity:0;"/>
            </g>
            <g transform="matrix(0.375,0,0,0.375,3081.13,1529.82)">
                <path d="M2396.06,974.752L2365.46,974.752C2364.37,974.752 2363.48,975.638 2363.48,976.731C2363.48,977.823 2364.37,978.71 2365.46,978.71L2396.06,978.71C2397.15,978.71 2398.04,977.823 2398.04,976.731C2398.04,975.638 2397.15,974.752 2396.06,974.752ZM2388.41,966.58L2373.11,966.58C2372.02,966.58 2371.13,967.467 2371.13,968.559C2371.13,969.652 2372.02,970.539 2373.11,970.539L2388.41,970.539C2389.5,970.539 2390.39,969.652 2390.39,968.559C2390.39,967.467 2389.5,966.58 2388.41,966.58ZM2391.11,958.409L2370.41,958.409C2369.32,958.409 2368.43,959.296 2368.43,960.388C2368.43,961.48 2369.32,962.367 2370.41,962.367L2391.11,962.367C2392.2,962.367 2393.09,961.48 2393.09,960.388C2393.09,959.296 2392.2,958.409 2391.11,958.409ZM2385.91,950.238L2375.61,950.238C2374.52,950.238 2373.63,951.125 2373.63,952.217C2373.63,953.309 2374.52,954.196 2375.61,954.196L2385.91,954.196C2387,954.196 2387.89,953.309 2387.89,952.217C2387.89,951.125 2387,950.238 2385.91,950.238Z" style="fill:white;"/>
            </g>
        </g>
    </g>
</svg>
