<?xml version="1.0" encoding="UTF-8" standalone="no"?>
<!DOCTYPE svg PUBLIC "-//W3C//DTD SVG 1.1//EN" "http://www.w3.org/Graphics/SVG/1.1/DTD/svg11.dtd">
<svg width="100%" height="100%" viewBox="0 0 18 18" version="1.1" xmlns="http://www.w3.org/2000/svg" xmlns:xlink="http://www.w3.org/1999/xlink" xml:space="preserve" xmlns:serif="http://www.serif.com/" style="fill-rule:evenodd;clip-rule:evenodd;stroke-linejoin:round;stroke-miterlimit:2;">
    <g transform="matrix(1,0,0,1,-1387.36,-532.313)">
        <g transform="matrix(1,0,0,1,-1174.71,-552.756)">
            <g transform="matrix(0.983809,0,0,0.983809,1483.77,560.791)">
                <rect x="1096.04" y="532.907" width="18.296" height="18.296" style="fill:white;fill-opacity:0;"/>
            </g>
            <g transform="matrix(0.337431,0,0,0.337431,1599.85,768.626)">
                <path d="M2860.05,960.985L2855.19,963.425C2854.79,963.624 2854.54,964.03 2854.54,964.474C2854.54,964.918 2854.79,965.323 2855.19,965.522L2860.05,967.962L2855.19,970.402C2854.79,970.601 2854.54,971.007 2854.54,971.451C2854.54,971.894 2854.79,972.3 2855.19,972.499L2869.1,979.476C2869.43,979.642 2869.82,979.642 2870.15,979.476L2884.06,972.499C2884.46,972.3 2884.71,971.894 2884.71,971.451C2884.71,971.007 2884.46,970.601 2884.06,970.402L2879.2,967.962L2884.06,965.522C2884.46,965.323 2884.71,964.918 2884.71,964.474C2884.71,964.03 2884.46,963.624 2884.06,963.425L2879.2,960.985L2884.06,958.545C2884.46,958.346 2884.71,957.941 2884.71,957.497C2884.71,957.053 2884.46,956.648 2884.06,956.449L2870.15,949.472C2869.82,949.306 2869.43,949.306 2869.1,949.472L2855.19,956.449C2854.79,956.648 2854.54,957.053 2854.54,957.497C2854.54,957.941 2854.79,958.346 2855.19,958.545L2860.05,960.985ZM2893.43,965.699L2889.12,965.699C2888.67,965.699 2888.27,965.97 2888.09,966.385C2887.92,966.8 2888.02,967.277 2888.34,967.595C2890.18,969.435 2892.88,972.137 2894.2,973.458C2894.63,973.891 2895.34,973.891 2895.77,973.458C2897.09,972.137 2899.79,969.435 2901.63,967.595C2901.95,967.277 2902.04,966.8 2901.87,966.385C2901.7,965.97 2901.3,965.699 2900.85,965.699L2896.53,965.699L2896.53,956.715C2896.53,955.859 2895.84,955.165 2894.98,955.165C2894.13,955.165 2893.43,955.859 2893.43,956.715L2893.43,965.699ZM2876.58,962.297L2880.92,964.474L2869.62,970.139L2858.33,964.474C2858.33,964.474 2862.67,962.297 2862.67,962.297L2869.13,965.537L2869.34,965.611L2869.56,965.645L2869.78,965.637L2869.99,965.588L2870.15,965.522L2876.58,962.297ZM2873.04,961.446L2869.62,963.162L2858.33,957.497L2869.62,951.832L2880.92,957.497L2873.04,961.446Z" style="fill:white;"/>
            </g>
        </g>
    </g>
</svg>
