<?xml version="1.0" encoding="UTF-8" standalone="no"?>
<!DOCTYPE svg PUBLIC "-//W3C//DTD SVG 1.1//EN" "http://www.w3.org/Graphics/SVG/1.1/DTD/svg11.dtd">
<svg width="100%" height="100%" viewBox="0 0 18 18" version="1.1" xmlns="http://www.w3.org/2000/svg" xmlns:xlink="http://www.w3.org/1999/xlink" xml:space="preserve" xmlns:serif="http://www.serif.com/" style="fill-rule:evenodd;clip-rule:evenodd;stroke-linejoin:round;stroke-miterlimit:2;">
    <g transform="matrix(1,0,0,1,-1358.36,-532.313)">
        <g transform="matrix(1,0,0,1,-1174.71,-552.756)">
            <g transform="matrix(0.983809,0,0,0.983809,1454.77,560.791)">
                <rect x="1096.04" y="532.907" width="18.296" height="18.296" style="fill:white;fill-opacity:0;"/>
            </g>
            <g transform="matrix(0.338165,0,0,0.338165,1595.14,767.918)">
                <path d="M2782.05,960.985L2777.18,963.425C2776.78,963.624 2776.53,964.03 2776.53,964.474C2776.53,964.918 2776.78,965.323 2777.18,965.522L2782.05,967.962L2777.18,970.402C2776.78,970.601 2776.53,971.007 2776.53,971.451C2776.53,971.894 2776.78,972.3 2777.18,972.499L2791.09,979.476C2791.42,979.642 2791.81,979.642 2792.14,979.476L2806.05,972.499C2806.45,972.3 2806.7,971.894 2806.7,971.451C2806.7,971.007 2806.45,970.601 2806.05,970.402L2801.19,967.962L2806.05,965.522C2806.45,965.323 2806.7,964.918 2806.7,964.474C2806.7,964.03 2806.45,963.624 2806.05,963.425L2801.19,960.985L2806.05,958.545C2806.45,958.346 2806.7,957.941 2806.7,957.497C2806.7,957.053 2806.45,956.648 2806.05,956.449L2792.14,949.472C2791.81,949.306 2791.42,949.306 2791.09,949.472L2777.18,956.449C2776.78,956.648 2776.53,957.053 2776.53,957.497C2776.53,957.941 2776.78,958.346 2777.18,958.545L2782.05,960.985ZM2792.14,972.499L2791.94,972.58L2791.72,972.619L2791.5,972.617L2791.28,972.575L2791.09,972.499C2791.09,972.499 2784.66,969.274 2784.66,969.274C2784.66,969.274 2780.32,971.451 2780.32,971.451C2780.32,971.451 2791.62,977.115 2791.62,977.115C2791.62,977.115 2802.91,971.451 2802.91,971.451L2798.57,969.274L2792.14,972.499ZM2815.33,963.248L2811.01,963.248C2810.56,963.248 2810.16,962.978 2809.99,962.563C2809.82,962.148 2809.91,961.67 2810.23,961.353C2812.07,959.513 2814.77,956.811 2816.09,955.49C2816.52,955.056 2817.23,955.056 2817.66,955.49C2818.98,956.811 2821.68,959.513 2823.52,961.353C2823.84,961.67 2823.94,962.148 2823.76,962.563C2823.59,962.978 2823.19,963.248 2822.74,963.248L2818.43,963.248L2818.43,972.233C2818.43,973.089 2817.73,973.783 2816.88,973.783C2816.02,973.783 2815.33,973.089 2815.33,972.233L2815.33,963.248ZM2798.57,962.297L2792.14,965.522C2791.81,965.688 2791.42,965.688 2791.09,965.522L2784.66,962.297L2780.32,964.474L2791.62,970.139L2802.91,964.474L2798.57,962.297Z" style="fill:white;"/>
            </g>
        </g>
    </g>
</svg>
