<?xml version="1.0" encoding="UTF-8" standalone="no"?>
<!DOCTYPE svg PUBLIC "-//W3C//DTD SVG 1.1//EN" "http://www.w3.org/Graphics/SVG/1.1/DTD/svg11.dtd">
<svg width="100%" height="100%" viewBox="0 0 18 18" version="1.1" xmlns="http://www.w3.org/2000/svg" xmlns:xlink="http://www.w3.org/1999/xlink" xml:space="preserve" xmlns:serif="http://www.serif.com/" style="fill-rule:evenodd;clip-rule:evenodd;stroke-linejoin:round;stroke-miterlimit:2;">
    <g transform="matrix(1,0,0,1,-1902.29,-1510.29)">
        <g transform="matrix(1,0,0,1,-1174.71,-552.756)">
            <g transform="matrix(0.99627,0,0,0.99627,1984.36,1532.93)">
                <rect x="1096.73" y="532.098" width="18.067" height="18.067" style="fill:white;fill-opacity:0;"/>
            </g>
            <g transform="matrix(0.398541,0,0,0.398541,149.063,1626.05)">
                <path d="M7377.36,1109.78C7375.21,1107.91 7372.39,1106.78 7369.32,1106.78C7362.53,1106.78 7357.02,1112.3 7357.02,1119.09C7357.02,1125.88 7362.53,1131.39 7369.32,1131.39C7373.13,1131.39 7376.54,1129.66 7378.79,1126.94C7379.31,1126.32 7380.23,1126.23 7380.85,1126.75C7381.47,1127.26 7381.55,1128.18 7381.04,1128.8C7378.24,1132.16 7374.03,1134.31 7369.32,1134.31C7360.92,1134.31 7354.1,1127.49 7354.1,1119.09C7354.1,1110.68 7360.92,1103.86 7369.32,1103.86C7373.2,1103.86 7376.74,1105.32 7379.43,1107.71L7382.54,1104.6C7382.84,1104.3 7383.28,1104.21 7383.68,1104.38C7384.07,1104.54 7384.32,1104.92 7384.32,1105.34C7384.32,1107.79 7384.32,1111.38 7384.32,1113.14C7384.32,1113.72 7383.85,1114.19 7383.28,1114.19L7375.47,1114.19C7375.05,1114.19 7374.67,1113.93 7374.51,1113.54C7374.35,1113.15 7374.44,1112.7 7374.74,1112.4L7377.36,1109.78Z" style="fill:rgb(115,116,117);"/>
            </g>
        </g>
    </g>
</svg>
