<?xml version="1.0" encoding="UTF-8" standalone="no"?>
<!DOCTYPE svg PUBLIC "-//W3C//DTD SVG 1.1//EN" "http://www.w3.org/Graphics/SVG/1.1/DTD/svg11.dtd">
<svg width="100%" height="100%" viewBox="0 0 18 18" version="1.1" xmlns="http://www.w3.org/2000/svg" xmlns:xlink="http://www.w3.org/1999/xlink" xml:space="preserve" xmlns:serif="http://www.serif.com/" style="fill-rule:evenodd;clip-rule:evenodd;stroke-linejoin:round;stroke-miterlimit:2;">
    <g transform="matrix(1,0,0,1,-1973.66,-532.313)">
        <g transform="matrix(1,0,0,1,-1174.71,-552.756)">
            <g transform="matrix(0.983809,0,0,0.983809,2070.07,560.791)">
                <rect x="1096.04" y="532.907" width="18.296" height="18.296" style="fill:white;fill-opacity:0;"/>
            </g>
            <g transform="matrix(1.06986,0,0,1.06986,952.099,664.359)">
                <path d="M2057.2,397.118L2055.96,395.88C2055.84,395.761 2055.66,395.725 2055.51,395.79C2055.35,395.854 2055.25,396.006 2055.25,396.175C2055.25,397.15 2055.25,398.583 2055.25,399.284C2055.25,399.514 2055.44,399.7 2055.67,399.7L2058.78,399.7C2058.95,399.7 2059.1,399.599 2059.16,399.443C2059.23,399.288 2059.19,399.109 2059.07,398.989L2058.02,397.942C2058.88,397.199 2060,396.748 2061.23,396.748C2063.94,396.748 2066.13,398.946 2066.13,401.653C2066.13,404.359 2063.94,406.557 2061.23,406.557C2059.71,406.557 2058.35,405.866 2057.45,404.781C2057.25,404.535 2056.88,404.5 2056.64,404.705C2056.39,404.91 2056.35,405.277 2056.56,405.524C2057.67,406.865 2059.35,407.719 2061.23,407.719C2064.58,407.719 2067.3,405.001 2067.3,401.653C2067.3,398.304 2064.58,395.586 2061.23,395.586C2059.68,395.586 2058.27,396.165 2057.2,397.118ZM2060.68,398.879L2060.68,401.72C2060.68,401.865 2060.74,402.005 2060.84,402.108L2062.15,403.416C2062.36,403.63 2062.71,403.63 2062.93,403.416C2063.14,403.201 2063.14,402.852 2062.93,402.638L2061.78,401.492C2061.78,401.492 2061.78,398.879 2061.78,398.879C2061.78,398.576 2061.53,398.329 2061.23,398.329C2060.93,398.329 2060.68,398.576 2060.68,398.879Z" style="fill:rgb(115,116,117);"/>
            </g>
        </g>
    </g>
</svg>
