<?xml version="1.0" encoding="UTF-8" standalone="no"?>
<!DOCTYPE svg PUBLIC "-//W3C//DTD SVG 1.1//EN" "http://www.w3.org/Graphics/SVG/1.1/DTD/svg11.dtd">
<svg width="100%" height="100%" viewBox="0 0 18 18" version="1.1" xmlns="http://www.w3.org/2000/svg" xmlns:xlink="http://www.w3.org/1999/xlink" xml:space="preserve" xmlns:serif="http://www.serif.com/" style="fill-rule:evenodd;clip-rule:evenodd;stroke-linejoin:round;stroke-miterlimit:2;">
    <g transform="matrix(1,0,0,1,-1227.36,-369.948)">
        <g transform="matrix(0.941176,0,0,0.941176,-2531.33,-1401.29)">
            <g transform="matrix(1.0453,0,0,1.0453,2847.92,1324.89)">
                <rect x="1096.04" y="532.907" width="18.296" height="18.296" style="fill:white;fill-opacity:0;"/>
            </g>
            <g transform="matrix(-0.375,0,0,0.375,4895.95,1529.82)">
                <path d="M2396.06,974.752L2365.46,974.752C2364.37,974.752 2363.48,975.638 2363.48,976.731C2363.48,977.823 2364.37,978.71 2365.46,978.71L2396.06,978.71C2397.15,978.71 2398.04,977.823 2398.04,976.731C2398.04,975.638 2397.15,974.752 2396.06,974.752ZM2380.76,966.58L2365.46,966.58C2364.37,966.58 2363.48,967.467 2363.48,968.559C2363.48,969.652 2364.37,970.539 2365.46,970.539L2380.76,970.539C2381.85,970.539 2382.74,969.652 2382.74,968.559C2382.74,967.467 2381.85,966.58 2380.76,966.58ZM2386.16,958.409L2365.46,958.409C2364.37,958.409 2363.48,959.296 2363.48,960.388C2363.48,961.48 2364.37,962.367 2365.46,962.367L2386.16,962.367C2387.25,962.367 2388.14,961.48 2388.14,960.388C2388.14,959.296 2387.25,958.409 2386.16,958.409ZM2375.76,950.238L2365.46,950.238C2364.37,950.238 2363.48,951.125 2363.48,952.217C2363.48,953.309 2364.37,954.196 2365.46,954.196L2375.76,954.196C2376.85,954.196 2377.74,953.309 2377.74,952.217C2377.74,951.125 2376.85,950.238 2375.76,950.238Z" style="fill:white;"/>
            </g>
        </g>
    </g>
</svg>
