<?xml version="1.0" encoding="UTF-8" standalone="no"?>
<!DOCTYPE svg PUBLIC "-//W3C//DTD SVG 1.1//EN" "http://www.w3.org/Graphics/SVG/1.1/DTD/svg11.dtd">
<svg width="100%" height="100%" viewBox="0 0 18 18" version="1.1" xmlns="http://www.w3.org/2000/svg" xmlns:xlink="http://www.w3.org/1999/xlink" xml:space="preserve" xmlns:serif="http://www.serif.com/" style="fill-rule:evenodd;clip-rule:evenodd;stroke-linejoin:round;stroke-miterlimit:2;">
    <g transform="matrix(1,0,0,1,-2060.32,-1510.29)">
        <g transform="matrix(1,0,0,1,-1174.71,-552.756)">
            <g transform="matrix(0.99627,0,0,0.99627,2142.39,1532.93)">
                <rect x="1096.73" y="532.098" width="18.067" height="18.067" style="fill:white;fill-opacity:0;"/>
            </g>
            <g transform="matrix(0.398541,0,0,0.398541,63.458,1626.05)">
                <path d="M7991.15,1106.61L7981.48,1106.61L7981.48,1105.02C7981.48,1104.51 7981.06,1104.09 7980.54,1104.09C7980.03,1104.09 7979.61,1104.51 7979.61,1105.02L7979.61,1106.61L7969.93,1106.61L7969.93,1105.02C7969.93,1104.51 7969.51,1104.09 7969,1104.09C7968.48,1104.09 7968.06,1104.51 7968.06,1105.02L7968.06,1106.61L7966.48,1106.61C7965.96,1106.61 7965.54,1107.03 7965.54,1107.54C7965.54,1108.06 7965.96,1108.48 7966.48,1108.48L7968.06,1108.48L7968.06,1118.15L7966.48,1118.15C7965.96,1118.15 7965.54,1118.57 7965.54,1119.09C7965.54,1119.6 7965.96,1120.02 7966.48,1120.02L7968.06,1120.02L7968.06,1129.7L7966.48,1129.7C7965.96,1129.7 7965.54,1130.12 7965.54,1130.63C7965.54,1131.15 7965.96,1131.57 7966.48,1131.57L7968.06,1131.57L7968.06,1133.15C7968.06,1133.67 7968.48,1134.09 7969,1134.09C7969.51,1134.09 7969.93,1133.67 7969.93,1133.15L7969.93,1131.57L7979.61,1131.57L7979.61,1133.15C7979.61,1133.67 7980.03,1134.09 7980.54,1134.09C7981.06,1134.09 7981.48,1133.67 7981.48,1133.15L7981.48,1131.57L7991.15,1131.57L7991.15,1133.15C7991.15,1133.67 7991.57,1134.09 7992.09,1134.09C7992.6,1134.09 7993.02,1133.67 7993.02,1133.15L7993.02,1131.57L7994.61,1131.57C7995.12,1131.57 7995.54,1131.15 7995.54,1130.63C7995.54,1130.12 7995.12,1129.7 7994.61,1129.7L7993.02,1129.7L7993.02,1120.02L7994.61,1120.02C7995.12,1120.02 7995.54,1119.6 7995.54,1119.09C7995.54,1118.57 7995.12,1118.15 7994.61,1118.15L7993.02,1118.15L7993.02,1108.48L7994.61,1108.48C7995.12,1108.48 7995.54,1108.06 7995.54,1107.54C7995.54,1107.03 7995.12,1106.61 7994.61,1106.61L7993.02,1106.61L7993.02,1105.02C7993.02,1104.51 7992.6,1104.09 7992.09,1104.09C7991.57,1104.09 7991.15,1104.51 7991.15,1105.02L7991.15,1106.61ZM7979.61,1120.02L7969.93,1120.02L7969.93,1129.7L7979.61,1129.7L7979.61,1120.02ZM7991.15,1120.02L7981.48,1120.02L7981.48,1129.7L7991.15,1129.7L7991.15,1120.02ZM7979.61,1108.48L7969.93,1108.48L7969.93,1118.15L7979.61,1118.15L7979.61,1108.48ZM7991.15,1108.48L7981.48,1108.48L7981.48,1118.15L7991.15,1118.15L7991.15,1108.48Z" style="fill:rgb(115,116,117);"/>
            </g>
        </g>
    </g>
</svg>
