<?xml version="1.0" encoding="UTF-8" standalone="no"?>
<!DOCTYPE svg PUBLIC "-//W3C//DTD SVG 1.1//EN" "http://www.w3.org/Graphics/SVG/1.1/DTD/svg11.dtd">
<svg width="100%" height="100%" viewBox="0 0 18 18" version="1.1" xmlns="http://www.w3.org/2000/svg" xmlns:xlink="http://www.w3.org/1999/xlink" xml:space="preserve" xmlns:serif="http://www.serif.com/" style="fill-rule:evenodd;clip-rule:evenodd;stroke-linejoin:round;stroke-miterlimit:2;">
    <g transform="matrix(1,0,0,1,-1227.36,-532.313)">
        <g transform="matrix(1,0,0,1,-1174.71,-552.756)">
            <g transform="matrix(0.983809,0,0,0.983809,1323.77,560.791)">
                <rect x="1096.04" y="532.907" width="18.296" height="18.296" style="fill:white;fill-opacity:0;"/>
            </g>
            <g transform="matrix(0.352941,0,0,0.352941,1542.92,753.667)">
                <path d="M2447.37,948.278C2447.87,947.742 2448.81,947.746 2449.32,948.28C2450.69,949.645 2452.06,951.017 2453.43,952.386C2453.75,952.689 2453.93,953.148 2453.86,953.592C2453.79,954.195 2453.28,954.711 2452.67,954.775C2452.25,954.832 2451.82,954.688 2451.52,954.387C2450.92,953.791 2450.33,953.193 2449.73,952.596C2449.72,960.515 2449.73,968.432 2449.73,976.35C2450.33,975.757 2450.92,975.157 2451.52,974.563C2451.82,974.258 2452.26,974.114 2452.68,974.175C2453.31,974.244 2453.85,974.813 2453.87,975.45C2453.9,975.867 2453.73,976.282 2453.43,976.566C2452.06,977.934 2450.69,979.305 2449.32,980.669C2448.81,981.202 2447.87,981.204 2447.37,980.669C2445.98,979.287 2444.6,977.905 2443.22,976.522C2442.7,976.03 2442.68,975.127 2443.17,974.61C2443.65,974.052 2444.59,974.009 2445.12,974.522C2445.74,975.125 2446.35,975.741 2446.96,976.348C2446.96,968.432 2446.96,960.516 2446.96,952.6C2446.34,953.206 2445.74,953.823 2445.12,954.424C2444.6,954.937 2443.66,954.896 2443.17,954.34C2442.68,953.826 2442.7,952.923 2443.21,952.43C2444.6,951.045 2445.98,949.662 2447.37,948.278ZM2474.71,975.093L2458.48,975.093C2457.39,975.093 2456.5,975.98 2456.5,977.072C2456.5,978.165 2457.39,979.052 2458.48,979.052L2474.71,979.052C2475.81,979.052 2476.69,978.165 2476.69,977.072C2476.69,975.98 2475.81,975.093 2474.71,975.093ZM2474.71,966.922L2458.48,966.922C2457.39,966.922 2456.5,967.809 2456.5,968.901C2456.5,969.993 2457.39,970.88 2458.48,970.88L2474.71,970.88C2475.81,970.88 2476.69,969.993 2476.69,968.901C2476.69,967.809 2475.81,966.922 2474.71,966.922ZM2474.71,958.751L2458.48,958.751C2457.39,958.751 2456.5,959.637 2456.5,960.73C2456.5,961.822 2457.39,962.709 2458.48,962.709L2474.71,962.709C2475.81,962.709 2476.69,961.822 2476.69,960.73C2476.69,959.637 2475.81,958.751 2474.71,958.751ZM2474.71,950.289L2458.48,950.289C2457.39,950.289 2456.5,951.176 2456.5,952.268C2456.5,953.361 2457.39,954.247 2458.48,954.247L2474.71,954.247C2475.81,954.247 2476.69,953.361 2476.69,952.268C2476.69,951.176 2475.81,950.289 2474.71,950.289Z" style="fill:white;fill-rule:nonzero;"/>
            </g>
        </g>
    </g>
</svg>
