<?xml version="1.0" encoding="UTF-8" standalone="no"?>
<!DOCTYPE svg PUBLIC "-//W3C//DTD SVG 1.1//EN" "http://www.w3.org/Graphics/SVG/1.1/DTD/svg11.dtd">
<svg width="100%" height="100%" viewBox="0 0 18 18" version="1.1" xmlns="http://www.w3.org/2000/svg" xmlns:xlink="http://www.w3.org/1999/xlink" xml:space="preserve" xmlns:serif="http://www.serif.com/" style="fill-rule:evenodd;clip-rule:evenodd;stroke-linejoin:round;stroke-miterlimit:2;">
    <g transform="matrix(1,0,0,1,-1872.27,-1510.29)">
        <g transform="matrix(1,0,0,1,-1174.71,-552.756)">
            <g transform="matrix(0.99627,0,0,0.99627,1954.35,1532.93)">
                <rect x="1096.73" y="532.098" width="18.067" height="18.067" style="fill:white;fill-opacity:0;"/>
            </g>
            <g transform="matrix(0.398541,0,0,0.398541,153.763,1626.05)">
                <path d="M7271.89,1107.71L7268.79,1104.6C7268.49,1104.3 7268.04,1104.21 7267.65,1104.38C7267.26,1104.54 7267,1104.92 7267,1105.34C7267,1107.79 7267,1111.38 7267,1113.14C7267,1113.72 7267.47,1114.19 7268.05,1114.19L7275.85,1114.19C7276.27,1114.19 7276.65,1113.93 7276.82,1113.54C7276.98,1113.15 7276.89,1112.7 7276.59,1112.4L7273.96,1109.78C7276.12,1107.91 7278.93,1106.78 7282,1106.78C7288.8,1106.78 7294.31,1112.3 7294.31,1119.09C7294.31,1125.88 7288.8,1131.39 7282,1131.39C7278.19,1131.39 7274.79,1129.66 7272.53,1126.94C7272.02,1126.32 7271.1,1126.23 7270.48,1126.75C7269.86,1127.26 7269.77,1128.18 7270.29,1128.8C7273.08,1132.16 7277.29,1134.31 7282,1134.31C7290.4,1134.31 7297.23,1127.49 7297.23,1119.09C7297.23,1110.68 7290.4,1103.86 7282,1103.86C7278.12,1103.86 7274.58,1105.32 7271.89,1107.71Z" style="fill:rgb(115,116,117);"/>
            </g>
        </g>
    </g>
</svg>
