<?xml version="1.0" encoding="UTF-8" standalone="no"?>
<!DOCTYPE svg PUBLIC "-//W3C//DTD SVG 1.1//EN" "http://www.w3.org/Graphics/SVG/1.1/DTD/svg11.dtd">
<svg width="100%" height="100%" viewBox="0 0 18 18" version="1.1" xmlns="http://www.w3.org/2000/svg" xmlns:xlink="http://www.w3.org/1999/xlink" xml:space="preserve" xmlns:serif="http://www.serif.com/" style="fill-rule:evenodd;clip-rule:evenodd;stroke-linejoin:round;stroke-miterlimit:2;">
    <g transform="matrix(1,0,0,1,-1500.36,-481.519)">
        <g transform="matrix(1,0,0,1,-1177.71,-603.55)">
            <g transform="matrix(0.983809,0,0,0.983809,1599.77,560.791)">
                <rect x="1096.04" y="532.907" width="18.296" height="18.296" style="fill:white;fill-opacity:0;"/>
            </g>
            <g transform="matrix(0.358577,0,0,0.358577,1526.41,832.003)">
                <path d="M3242.02,722.242L3244.91,722.242C3244.6,718.091 3241.12,714.816 3236.89,714.816C3232.45,714.816 3228.85,718.418 3228.85,722.856L3228.85,726.985L3227.75,726.985C3226.13,726.985 3224.8,728.307 3224.8,729.936L3224.8,743.936C3224.8,745.565 3226.13,746.887 3227.75,746.887L3245.89,746.887C3247.52,746.887 3248.84,745.565 3248.84,743.936L3248.84,729.936C3248.84,728.307 3247.52,726.985 3245.89,726.985L3231.73,726.985L3231.73,722.856C3231.73,720.007 3234.04,717.694 3236.89,717.694C3239.53,717.694 3241.71,719.682 3242.02,722.242ZM3235.39,737.255C3234.6,736.771 3234.07,735.9 3234.07,734.908C3234.07,733.389 3235.3,732.156 3236.82,732.156C3238.34,732.156 3239.57,733.389 3239.57,734.908C3239.57,735.9 3239.05,736.771 3238.26,737.255L3238.26,740.225C3238.26,741.017 3237.61,741.661 3236.82,741.661C3236.03,741.661 3235.39,741.017 3235.39,740.225L3235.39,737.255Z" style="fill:white;"/>
            </g>
        </g>
    </g>
</svg>
