<?xml version="1.0" encoding="UTF-8" standalone="no"?>
<!DOCTYPE svg PUBLIC "-//W3C//DTD SVG 1.1//EN" "http://www.w3.org/Graphics/SVG/1.1/DTD/svg11.dtd">
<svg width="100%" height="100%" viewBox="0 0 18 13" version="1.1" xmlns="http://www.w3.org/2000/svg" xmlns:xlink="http://www.w3.org/1999/xlink" xml:space="preserve" xmlns:serif="http://www.serif.com/" style="fill-rule:evenodd;clip-rule:evenodd;stroke-linejoin:round;stroke-miterlimit:2;">
    <g transform="matrix(1,0,0,1,-2004.21,-489.065)">
        <g transform="matrix(1,0,0,1,-1174.71,-552.756)">
            <g transform="matrix(0.375,0,0,0.375,1544.76,697.392)">
                <path d="M4379.77,918.86C4381.9,918.334 4384.15,918.351 4386.27,918.908C4389.67,919.781 4392.67,922.094 4394.4,925.152C4395.33,926.752 4395.88,928.559 4396.07,930.396C4399.4,930.975 4402.34,933.211 4403.92,936.177C4404.8,937.786 4405.27,939.608 4405.33,941.44L4405.33,941.839C4405.28,945.435 4403.44,948.946 4400.51,951.035C4398.81,952.268 4396.74,953.019 4394.64,953.09C4391.33,953.086 4372.11,953.089 4368.99,953.089C4367.84,953.075 4366.68,953.165 4365.55,952.895C4363.11,952.368 4360.97,950.775 4359.58,948.717C4358.44,947.032 4357.79,945.014 4357.75,942.976L4357.75,942.802C4357.8,942.18 4357.81,941.551 4357.96,940.942C4358.47,938.264 4360.22,935.892 4362.55,934.502C4361.95,932.854 4362.04,930.973 4362.8,929.393C4363.54,927.826 4364.93,926.581 4366.57,926.016C4367.99,925.516 4369.58,925.532 4371,926.041C4371.47,925.078 4372.04,924.159 4372.72,923.33C4374.5,921.133 4377.02,919.531 4379.77,918.86ZM4372.52,949.485C4373.44,949.485 4374.07,949.397 4374.41,949.22C4374.96,948.936 4375.37,948.304 4375.65,947.325L4380.11,931.176C4378.61,931.167 4377.33,931.527 4376.26,932.256C4375.2,932.986 4374.31,934.061 4373.6,935.482L4372.82,935.276L4373.99,930.118L4390.56,930.118L4389.47,935.908L4388.68,935.834C4388.63,933.875 4388.08,932.538 4387.03,931.823C4386.47,931.431 4385.62,931.216 4384.51,931.176L4380.29,946.561L4380.04,947.604C4380.01,947.741 4379.99,947.854 4379.98,947.942C4379.97,948.03 4379.97,948.118 4379.97,948.206C4379.97,948.726 4380.13,949.051 4380.45,949.183C4380.78,949.316 4381.45,949.416 4382.48,949.485L4382.48,950.249L4372.52,950.249L4372.52,949.485Z" style="fill:white;"/>
            </g>
        </g>
    </g>
</svg>
