<?xml version="1.0" encoding="UTF-8" standalone="no"?>
<!DOCTYPE svg PUBLIC "-//W3C//DTD SVG 1.1//EN" "http://www.w3.org/Graphics/SVG/1.1/DTD/svg11.dtd">
<svg width="100%" height="100%" viewBox="0 0 18 13" version="1.1" xmlns="http://www.w3.org/2000/svg" xmlns:xlink="http://www.w3.org/1999/xlink" xml:space="preserve" xmlns:serif="http://www.serif.com/" style="fill-rule:evenodd;clip-rule:evenodd;stroke-linejoin:round;stroke-miterlimit:2;">
    <g transform="matrix(1,0,0,1,-840.863,-1509.62)">
        <g transform="matrix(1,0,0,1,-1174.71,-552.756)">
            <g transform="matrix(0.0348476,0,0,0.0348476,2015.57,2059.94)">
                <path d="M236.96,73.93C259.83,68.27 284.12,68.46 306.9,74.45C343.52,83.85 375.79,108.74 394.35,141.64C404.38,158.86 410.27,178.31 412.4,198.08C448.21,204.31 479.8,228.37 496.81,260.29C506.31,277.6 511.32,297.21 512,316.92L512,321.21C511.44,359.91 491.7,397.69 460.19,420.17C441.86,433.44 419.64,441.52 396.96,442.29C361.38,442.25 325.8,442.32 290.21,442.26C290.22,405.27 290.21,368.28 290.22,331.28C302.16,331.23 314.1,331.35 326.04,331.24C329.97,331.32 333.93,329.43 335.99,326.02C338.73,322.02 338.22,316.52 335.31,312.76C313.41,282.35 291.4,252 269.46,221.6C266.99,218.4 265.05,214.56 261.53,212.38C256.66,209.44 249.87,211.05 246.7,215.73C223.56,247.59 200.59,279.58 177.48,311.46C175.45,314.22 173.59,317.49 174.12,321.06C174.57,326.52 179.45,331.19 184.97,331.18C197.2,331.44 209.45,331.19 221.69,331.28C221.69,368.28 221.7,405.28 221.68,442.28L120.96,442.28C108.61,442.13 96.09,443.1 83.97,440.19C57.67,434.52 34.64,417.38 19.73,395.23C7.39,377.1 0.46,355.38 0,333.45L0,331.58C0.51,324.88 0.69,318.12 2.27,311.56C7.77,282.74 26.57,257.22 51.66,242.26C45.26,224.53 46.15,204.28 54.35,187.28C62.33,170.42 77.27,157.02 94.91,150.94C110.22,145.56 127.33,145.73 142.6,151.21C147.66,140.85 153.74,130.96 161.07,122.04C180.3,98.39 207.34,81.16 236.96,73.93Z" style="fill:rgb(40,191,51);fill-rule:nonzero;"/>
            </g>
        </g>
    </g>
</svg>
