<?xml version="1.0" encoding="UTF-8" standalone="no"?>
<!DOCTYPE svg PUBLIC "-//W3C//DTD SVG 1.1//EN" "http://www.w3.org/Graphics/SVG/1.1/DTD/svg11.dtd">
<svg width="100%" height="100%" viewBox="0 0 18 18" version="1.1" xmlns="http://www.w3.org/2000/svg" xmlns:xlink="http://www.w3.org/1999/xlink" xml:space="preserve" xmlns:serif="http://www.serif.com/" style="fill-rule:evenodd;clip-rule:evenodd;stroke-linejoin:round;stroke-miterlimit:2;">
    <g transform="matrix(1,0,0,1,-2002.12,-1510.29)">
        <g transform="matrix(1,0,0,1,-1174.71,-552.756)">
            <g transform="matrix(0.99627,0,0,0.99627,2084.19,1532.93)">
                <rect x="1096.73" y="532.098" width="18.067" height="18.067" style="fill:white;fill-opacity:0;"/>
            </g>
            <g transform="matrix(0.11691,0,0,0.11691,2742.28,1671.17)">
                <path d="M3793.89,3388.06L3794.24,3388.06C3799.87,3388.2 3805.51,3389.29 3810.65,3391.64C3821.27,3396.24 3829.6,3405.71 3833.01,3416.75C3836.02,3426.31 3835.35,3436.97 3831.12,3446.06C3829.94,3448.74 3828.34,3451.22 3826.64,3453.61C3829.02,3455.98 3831.38,3458.36 3833.76,3460.72C3835.73,3460.68 3837.69,3461.42 3839.08,3462.84C3843.74,3467.47 3848.39,3472.13 3853.05,3476.77C3854.6,3478.14 3855.7,3480.07 3855.73,3482.18L3855.73,3482.39C3855.66,3484.1 3854.98,3485.77 3853.79,3486.99C3852.73,3488.07 3851.7,3489.25 3850.34,3489.95C3849.39,3490.45 3848.31,3490.64 3847.26,3490.71L3847.22,3490.71C3845.42,3490.63 3843.66,3489.91 3842.4,3488.61C3837.61,3483.84 3832.83,3479.05 3828.05,3474.28C3826.53,3472.86 3825.67,3470.83 3825.73,3468.75C3823.37,3466.37 3820.99,3464.01 3818.62,3461.63C3815.09,3464.21 3811.22,3466.35 3807.05,3467.7C3795.97,3471.53 3783.26,3470.21 3773.2,3464.2C3766.43,3460.18 3760.77,3454.24 3757.35,3447.14C3755.02,3442.47 3753.64,3437.35 3753.24,3432.15C3753.2,3431.25 3753.15,3430.34 3753.09,3429.44L3753.09,3428.67C3753.2,3425.81 3753.44,3422.95 3754.09,3420.16C3755.42,3414.18 3758.08,3408.49 3761.89,3403.69C3765.95,3398.58 3771.2,3394.35 3777.2,3391.74C3782.41,3389.31 3788.16,3388.19 3793.89,3388.06ZM3790.65,3400.82C3783.01,3401.69 3775.83,3405.86 3771.27,3412.05C3767.99,3416.39 3766.03,3421.72 3765.69,3427.16C3765.27,3433.04 3766.77,3439.03 3769.89,3444.02C3773.23,3449.37 3778.37,3453.58 3784.31,3455.69C3790.6,3457.99 3797.7,3457.94 3803.96,3455.57C3808.42,3453.91 3812.43,3451.09 3815.52,3447.48C3819.1,3443.33 3821.44,3438.12 3822.14,3432.68C3823.01,3426.25 3821.59,3419.52 3818.14,3414.01C3815.63,3409.95 3812.07,3406.55 3807.9,3404.22C3802.7,3401.3 3796.57,3400.1 3790.65,3400.82ZM3790.81,3415.14C3791.77,3414.02 3793.34,3413.47 3794.79,3413.73C3796.26,3413.95 3797.57,3415.01 3798.11,3416.4C3798.42,3417.14 3798.43,3417.95 3798.44,3418.74C3798.43,3420.74 3798.43,3422.73 3798.43,3424.72C3800.69,3424.74 3802.94,3424.7 3805.2,3424.74C3806.55,3424.75 3807.87,3425.43 3808.67,3426.53C3809.39,3427.5 3809.63,3428.78 3809.39,3429.97C3809.11,3431.36 3808.09,3432.57 3806.77,3433.1C3806.03,3433.41 3805.21,3433.44 3804.41,3433.45C3802.42,3433.44 3800.42,3433.44 3798.42,3433.44C3798.41,3435.68 3798.44,3437.93 3798.41,3440.18C3798.41,3441.53 3797.73,3442.84 3796.65,3443.64C3795.46,3444.54 3793.8,3444.74 3792.43,3444.18C3790.82,3443.55 3789.71,3441.88 3789.72,3440.17C3789.69,3437.92 3789.72,3435.68 3789.7,3433.44C3787.46,3433.43 3785.21,3433.46 3782.96,3433.43C3781.61,3433.41 3780.29,3432.75 3779.5,3431.66C3778.59,3430.46 3778.39,3428.77 3778.99,3427.39C3779.64,3425.82 3781.27,3424.74 3782.96,3424.74C3785.21,3424.71 3787.46,3424.74 3789.71,3424.72C3789.71,3422.53 3789.7,3420.33 3789.71,3418.13C3789.71,3417.05 3790.08,3415.95 3790.81,3415.14Z" style="fill:rgb(115,116,117);fill-rule:nonzero;"/>
            </g>
        </g>
    </g>
</svg>
