<?xml version="1.0" encoding="UTF-8" standalone="no"?>
<!DOCTYPE svg PUBLIC "-//W3C//DTD SVG 1.1//EN" "http://www.w3.org/Graphics/SVG/1.1/DTD/svg11.dtd">
<svg width="100%" height="100%" viewBox="0 0 18 18" version="1.1" xmlns="http://www.w3.org/2000/svg" xmlns:xlink="http://www.w3.org/1999/xlink" xml:space="preserve" xmlns:serif="http://www.serif.com/" style="fill-rule:evenodd;clip-rule:evenodd;stroke-linejoin:round;stroke-miterlimit:2;">
    <g transform="matrix(1,0,0,1,-1932.3,-1510.29)">
        <g transform="matrix(1,0,0,1,-1174.71,-552.756)">
            <g transform="matrix(0.99627,0,0,0.99627,2014.37,1532.93)">
                <rect x="1096.73" y="532.098" width="18.067" height="18.067" style="fill:white;fill-opacity:0;"/>
            </g>
            <g transform="matrix(0.11691,0,0,0.11691,2662.56,1671.17)">
                <path d="M3878.55,3388.06L3878.89,3388.06C3884.52,3388.2 3890.17,3389.29 3895.31,3391.64C3905.93,3396.24 3914.26,3405.71 3917.66,3416.75C3920.67,3426.31 3920.01,3436.97 3915.77,3446.06C3914.59,3448.74 3912.99,3451.22 3911.3,3453.61C3913.67,3455.98 3916.04,3458.36 3918.41,3460.72C3920.39,3460.68 3922.35,3461.42 3923.74,3462.84C3928.4,3467.47 3933.04,3472.13 3937.7,3476.77C3939.25,3478.14 3940.36,3480.07 3940.39,3482.18L3940.39,3482.39C3940.32,3484.1 3939.64,3485.77 3938.44,3486.99C3937.38,3488.07 3936.36,3489.25 3934.99,3489.95C3934.04,3490.45 3932.97,3490.64 3931.91,3490.71L3931.87,3490.71C3930.07,3490.63 3928.32,3489.91 3927.06,3488.61C3922.26,3483.84 3917.49,3479.05 3912.7,3474.28C3911.19,3472.86 3910.33,3470.83 3910.39,3468.75C3908.02,3466.37 3905.65,3464.01 3903.27,3461.63C3899.74,3464.21 3895.87,3466.35 3891.71,3467.7C3880.63,3471.53 3867.91,3470.21 3857.85,3464.2C3851.09,3460.18 3845.43,3454.24 3842,3447.14C3839.68,3442.47 3838.29,3437.35 3837.89,3432.15C3837.85,3431.25 3837.8,3430.34 3837.74,3429.44L3837.74,3428.67C3837.85,3425.81 3838.09,3422.95 3838.75,3420.16C3840.08,3414.18 3842.73,3408.49 3846.54,3403.69C3850.61,3398.58 3855.86,3394.35 3861.86,3391.74C3867.07,3389.31 3872.82,3388.19 3878.55,3388.06ZM3875.31,3400.82C3867.67,3401.69 3860.49,3405.86 3855.93,3412.05C3852.64,3416.39 3850.68,3421.72 3850.34,3427.16C3849.93,3433.04 3851.42,3439.03 3854.55,3444.02C3857.88,3449.37 3863.02,3453.58 3868.97,3455.69C3875.25,3457.99 3882.36,3457.94 3888.62,3455.57C3893.07,3453.91 3897.08,3451.09 3900.18,3447.48C3903.76,3443.33 3906.09,3438.12 3906.79,3432.68C3907.67,3426.25 3906.25,3419.52 3902.8,3414.01C3900.28,3409.95 3896.72,3406.55 3892.55,3404.22C3887.36,3401.3 3881.22,3400.1 3875.31,3400.82ZM3867.62,3424.74C3869.86,3424.71 3887.6,3424.7 3889.86,3424.74C3891.21,3424.75 3892.53,3425.43 3893.32,3426.53C3894.05,3427.5 3894.28,3428.78 3894.04,3429.97C3893.77,3431.36 3892.75,3432.57 3891.43,3433.1C3890.68,3433.41 3889.87,3433.44 3889.07,3433.45C3887.07,3433.44 3869.86,3433.46 3867.61,3433.43C3866.27,3433.41 3864.95,3432.75 3864.16,3431.66C3863.24,3430.46 3863.05,3428.77 3863.65,3427.39C3864.29,3425.82 3865.93,3424.74 3867.62,3424.74Z" style="fill:rgb(115,116,117);fill-rule:nonzero;"/>
            </g>
        </g>
    </g>
</svg>
